<svg width="128" height="70" viewBox="0 0 128 70" fill="none" xmlns="http://www.w3.org/2000/svg">
<g clip-path="url(#clip0_9158_2234)">
<path d="M34.6889 -0.224609L23.9708 27.8707L0.138672 26.5466L21.362 23.0094L34.6889 -0.224609Z" fill="#42D8CB"/>
<path d="M70.3535 25.4949L44.6659 26.0353L34.9675 -0.0834269L47.3695 21.8475L70.3535 25.4949Z" fill="#42D8CB"/>
<path d="M1.67114 27.1648L21.3146 36.5918L20.6089 38.8829L1.67114 27.1648Z" fill="#42D8CB"/>
<path d="M34.4102 1.75195L28.0365 27.8707H25.912L34.4102 1.75195Z" fill="#42D8CB"/>
<path d="M14.2095 65.8488L23.9616 43.1352L21.6463 41.7066L14.2095 65.8488Z" fill="#42D8CB"/>
<path d="M15.3241 66.5547L27.859 53.5659L30.5094 53.6427L15.324 66.5531L15.3241 66.5547Z" fill="#42D8CB"/>
<path d="M50.2922 20.6704L47.9716 20.1514L36.6393 1.18722L50.2922 20.6704Z" fill="#42D8CB"/>
<path d="M20.2001 40.6689L12.4867 68.9548L15.7803 43.2378L0.417302 26.6001L20.2001 40.6689Z" fill="#42D8CB"/>
<path d="M118.975 53.5659L37.3466 57.0392L12.2591 69.3784L33.3229 53.5659H118.975Z" fill="#42D8CB"/>
<path d="M33.7997 50.6011C32.462 50.6011 31.258 50.3709 30.1878 49.9101C29.1176 49.4303 28.2767 48.7582 27.6652 47.8946C27.0537 47.0306 26.7479 46.0229 26.7479 44.8715H30.2451C30.3216 45.735 30.656 46.4454 31.2484 47.0018C31.86 47.5586 32.7104 47.837 33.7997 47.837C34.9272 47.837 35.8063 47.568 36.437 47.0306C37.0676 46.4743 37.3829 45.7639 37.3829 44.9003C37.3829 44.2282 37.1823 43.6813 36.7809 43.2588C36.3988 42.8367 35.9114 42.5105 35.319 42.2799C34.7457 42.0497 33.943 41.8001 32.9111 41.5316C31.6115 41.1859 30.5509 40.8404 29.7292 40.4949C28.9265 40.1302 28.2385 39.5735 27.6652 38.8249C27.0919 38.0763 26.8052 37.0782 26.8052 35.8305C26.8052 34.6788 27.0919 33.6711 27.6652 32.8073C28.2385 31.9435 29.0412 31.2813 30.0731 30.8206C31.1051 30.36 32.2995 30.1296 33.6564 30.1296C35.5866 30.1296 37.1632 30.6191 38.3863 31.5981C39.6284 32.5578 40.3165 33.8822 40.4503 35.5714H36.8383C36.7809 34.842 36.437 34.2181 35.8063 33.6999C35.1756 33.1816 34.3443 32.9225 33.3124 32.9225C32.376 32.9225 31.6116 33.1624 31.0191 33.6423C30.4267 34.1222 30.1305 34.8132 30.1305 35.7153C30.1305 36.3296 30.312 36.8382 30.6751 37.2414C31.0573 37.6253 31.5351 37.9324 32.1084 38.1627C32.6817 38.3931 33.4653 38.6426 34.459 38.9113C35.7776 39.276 36.8478 39.6407 37.6696 40.0054C38.5105 40.3701 39.2177 40.9364 39.7908 41.7042C40.3832 42.4529 40.6794 43.4606 40.6794 44.7273C40.6794 45.7445 40.4024 46.7045 39.8481 47.6068C39.313 48.5086 38.52 49.2384 37.469 49.7948C36.437 50.3322 35.2139 50.6011 33.7997 50.6011Z" fill="#00241C"/>
<path d="M47.2143 36.9729V45.8604C47.2143 46.4626 47.3476 46.8998 47.6142 47.172C47.8996 47.4246 48.3757 47.5504 49.0422 47.5504H51.0418L52.6605 50.3187H48.4711C47.0048 50.3187 45.8813 49.969 45.1006 49.2701C44.3195 48.5707 43.9294 47.4342 43.9294 45.8604V36.9729H42.0726V34.263H43.9294V30.2708H47.2143V34.263H51.0418L49.0422 36.9729H47.2143Z" fill="#00241C"/>
<path d="M52.3819 42.4117C52.3819 40.8328 52.7082 39.4346 53.3609 38.2172C54.0329 36.9997 54.935 36.0581 56.0677 35.3923C57.2198 34.7075 58.4869 34.3651 59.8691 34.3651C61.1173 34.3651 62.2019 34.6124 63.1234 35.107C64.0642 35.5825 64.813 36.1818 65.3699 36.9046V34.6219H68.6818V50.344H65.3699V48.0042C64.813 48.7462 64.0547 49.3645 63.0946 49.8591C62.1349 50.3538 61.0404 50.6011 59.8115 50.6011C58.4487 50.6011 57.2005 50.2587 56.0677 49.5738C54.935 48.8698 54.0329 47.8997 53.3609 46.6631C52.7082 45.4077 52.3819 43.9907 52.3819 42.4117ZM65.3699 42.4688C65.3699 41.3845 65.1394 40.4428 64.6786 39.6439C64.2372 38.845 63.6515 38.2362 62.922 37.8177C62.1925 37.3992 61.405 37.19 60.5604 37.19C59.7158 37.19 58.9287 37.3992 58.1988 37.8177C57.4693 38.2172 56.8741 38.8164 56.4134 39.6154C55.972 40.3953 55.7513 41.3273 55.7513 42.4117C55.7513 43.4961 55.972 44.447 56.4134 45.2653C56.8741 46.0832 57.4693 46.7109 58.1988 47.1484C58.9476 47.5667 59.7347 47.7761 60.5604 47.7761C61.405 47.7761 62.1925 47.5667 62.922 47.1484C63.6515 46.73 64.2372 46.1211 64.6786 45.322C65.1394 44.5041 65.3699 43.5532 65.3699 42.4688Z" fill="#00241C"/>
<path d="M75.2132 36.9231C75.6793 36.1268 76.2943 35.5106 77.059 35.0744C77.8416 34.6194 78.7646 34.6478 79.827 34.6478V37.2928H79.0161C77.7673 37.2928 76.8163 38.0703 76.1638 38.7149C75.5301 39.3596 75.2132 40.4783 75.2132 42.071V50.3187H72.0253V34.6478H75.2132V36.9231Z" fill="#00241C"/>
<path d="M89.8577 37.1687H86.935V50.3187H83.6397V37.1687H81.7774V34.4985H83.6397V33.3787C83.6397 31.5603 84.1174 30.2395 85.0726 29.4164C86.0467 28.5742 87.5656 28.1531 89.6287 28.1531V30.8808C88.6354 30.8808 87.9381 31.0722 87.5369 31.455C87.1358 31.8187 86.935 32.4599 86.935 33.3787V34.4985H89.8577V37.1687Z" fill="#00241C"/>
<path d="M94.9566 32.3559C94.3808 32.3559 93.8977 32.1544 93.5076 31.7514C93.1175 31.3484 92.9226 30.8494 92.9226 30.2545C92.9226 29.6596 93.1175 29.1606 93.5076 28.7576C93.8977 28.3546 94.3808 28.1531 94.9566 28.1531C95.5137 28.1531 95.9877 28.3546 96.3774 28.7576C96.7675 29.1606 96.9628 29.6596 96.9628 30.2545C96.9628 30.8494 96.7675 31.3484 96.3774 31.7514C95.9877 32.1544 95.5137 32.3559 94.9566 32.3559ZM96.517 34.4574V50.3187H93.3405V34.4574H96.517Z" fill="#00241C"/>
<path d="M108.5 34.3651C109.734 34.3651 110.835 34.6215 111.802 35.1343C112.789 35.6471 113.558 36.4068 114.109 37.4134C114.659 38.42 114.934 39.6356 114.934 41.06V50.3187H111.717V41.5445C111.717 40.1389 111.366 39.0658 110.664 38.3251C109.961 37.5654 109.003 37.1855 107.788 37.1855C106.573 37.1855 105.606 37.5654 104.884 38.3251C104.182 39.0658 103.831 40.1389 103.831 41.5445V50.3187H100.585V34.6215H103.831V36.4163C104.362 35.7705 105.036 35.2673 105.852 34.9064C106.687 34.5455 107.57 34.3651 108.5 34.3651Z" fill="#00241C"/>
</g>
<defs>
<clipPath id="clip0_9158_2234">
<rect width="118" height="68.7559" fill="white" transform="translate(0 0.62207)"/>
</clipPath>
</defs>
</svg>
