<svg width="377.6171760154739" height="70.09200000000003" viewBox="-2.149013539651833 262.54799999999994 377.6171760154739 70.09200000000003" fill="none" xmlns="http://www.w3.org/2000/svg">
<path d="M0 272.658V266.211H31.396V272.658H19.9083V296.703H11.4877V272.658H0ZM35.097 266.211H52.7664C55.8481 266.211 58.3728 266.995 60.3369 268.562C62.301 270.13 63.283 272.15 63.283 274.615C63.283 277.229 62.213 279.334 60.0694 280.931C63.0228 282.498 64.4995 284.866 64.4995 288.03C64.4995 290.584 63.4772 292.67 61.4325 294.28C59.3878 295.893 56.7422 296.696 53.4992 296.696H35.1006V266.211H35.097ZM43.5176 272.658V278.147H51.2567C52.2314 278.147 53.0339 277.885 53.6678 277.363C54.3017 276.842 54.6169 276.173 54.6169 275.36C54.6169 274.606 54.3017 273.966 53.6678 273.441C53.0339 272.92 52.2314 272.658 51.2567 272.658H43.5176ZM43.5176 284.331V290.256H52.2314C53.2684 290.256 54.1295 289.974 54.8111 289.407C55.4926 288.84 55.8334 288.122 55.8334 287.25C55.8334 286.407 55.4926 285.712 54.8111 285.158C54.1295 284.607 53.2684 284.331 52.2314 284.331H43.5176ZM99.3253 269.998C102.715 272.959 104.411 276.78 104.411 281.455C104.411 286.131 102.715 289.948 99.3253 292.912C95.9358 295.877 91.546 297.356 86.1594 297.356C80.8058 297.356 76.4306 295.873 73.0411 292.912C69.6516 289.951 67.955 286.131 67.955 281.455C67.955 276.78 69.6516 272.963 73.0411 269.998C76.4306 267.037 80.8058 265.555 86.1594 265.555C91.546 265.559 95.9358 267.037 99.3253 269.998ZM79.2705 287.968C81.0403 289.637 83.3342 290.473 86.1594 290.473C88.9846 290.473 91.2858 289.63 93.0703 287.945C94.8549 286.259 95.749 284.098 95.749 281.455C95.749 278.813 94.8549 276.648 93.0703 274.966C91.2858 273.281 88.9809 272.441 86.1594 272.441C83.3379 272.441 81.0403 273.278 79.2705 274.947C77.5006 276.616 76.6175 278.786 76.6175 281.459C76.6175 284.131 77.5006 286.299 79.2705 287.968ZM107.185 296.703L115.265 285.292C113.059 284.567 111.322 283.39 110.058 281.764C108.794 280.137 108.16 278.235 108.16 276.058C108.16 273.153 109.263 270.789 111.469 268.959C113.675 267.129 116.548 266.214 120.084 266.214H137.801V296.706H129.38V285.987H123.638L117.116 296.703H107.185ZM117.944 273.615C117.163 274.255 116.775 275.068 116.775 276.055C116.775 277.071 117.163 277.908 117.944 278.56C118.721 279.213 119.714 279.541 120.912 279.541H129.384V272.658H120.912C119.714 272.658 118.724 272.976 117.944 273.615Z" fill="url(#paint0_linear)"></path>
<path d="M143.898 264.541H176.664V298.981H171.301V269.167H149.261V298.981H143.898V264.541Z" fill="#212121"></path>
<path d="M214.4 268.944C217.744 272.241 219.418 276.515 219.418 281.763C219.418 287.011 217.744 291.285 214.4 294.581C211.056 297.877 206.726 299.525 201.411 299.525C196.063 299.525 191.719 297.877 188.375 294.581C185.03 291.285 183.356 287.011 183.356 281.763C183.356 276.515 185.03 272.241 188.375 268.944C191.719 265.648 196.067 264 201.411 264C206.726 264 211.056 265.648 214.4 268.944ZM192.36 290.985C194.689 293.362 197.708 294.551 201.411 294.551C205.115 294.551 208.126 293.362 210.441 290.985C212.752 288.607 213.911 285.533 213.911 281.759C213.911 277.955 212.748 274.863 210.419 272.485C208.089 270.107 205.089 268.918 201.415 268.918C197.708 268.918 194.689 270.107 192.363 272.485C190.034 274.863 188.871 277.955 188.871 281.759C188.867 285.533 190.03 288.607 192.36 290.985Z" fill="#212121"></path>
<path d="M225.078 295.733V290.125C227.767 293.077 231.67 294.555 236.789 294.555C239.774 294.555 242.192 294.04 244.044 293.007C245.896 291.973 246.825 290.57 246.825 288.799C246.825 287.322 246.251 286.092 245.103 285.111C243.955 284.125 242.511 283.633 240.774 283.633H233.492V279.155H240.085C241.725 279.155 243.077 278.689 244.144 277.752C245.211 276.818 245.744 275.659 245.744 274.281C245.744 272.607 244.925 271.296 243.285 270.344C241.644 269.392 239.463 268.918 236.74 268.918C231.789 268.918 227.981 270.411 225.326 273.396V267.789C228.507 265.263 232.54 264 237.429 264C241.629 264 244.981 264.859 247.492 266.581C250.003 268.304 251.255 270.674 251.255 273.692C251.255 276.974 249.844 279.481 247.025 281.222C248.699 281.977 250.003 283.074 250.936 284.518C251.87 285.962 252.34 287.599 252.34 289.436C252.34 292.585 250.988 295.055 248.281 296.84C245.573 298.629 241.959 299.521 237.433 299.521C232.44 299.521 228.322 298.258 225.078 295.733Z" fill="#212121"></path>
<path d="M259.169 298.981V264.541H264.532V289.781L289.821 264.789H292.872V298.984H287.509V273.941L262.169 298.984H259.169V298.981Z" fill="#212121"></path>
<path d="M301.139 264.541H306.501V278.955H312.653L323.575 264.541H330.216L317.127 281.366L331.393 298.981H324.653L312.598 283.629H306.498V298.981H301.135V264.541H301.139Z" fill="#212121"></path>
<path d="M351.123 264.541H353.582L371 298.981H365.048L361.604 291.896H343.104L339.66 298.981H333.708L351.123 264.541ZM345.367 287.222H359.341L352.356 272.855L345.367 287.222Z" fill="#212121"></path>
<path d="M49.3462 312.411V310H63.8459V312.411H57.9793V325.781H55.2053V312.411H49.3462Z" fill="#212121"></path>
<path d="M66.1865 310H73.8307C75.227 310 76.3714 310.396 77.2566 311.185C78.1417 311.974 78.5862 312.985 78.5862 314.218C78.5862 315.692 77.9936 316.818 76.8047 317.6C77.5417 317.959 78.1195 318.474 78.5417 319.144C78.9639 319.814 79.1713 320.57 79.1713 321.411C79.1713 322.703 78.7084 323.755 77.7862 324.566C76.8603 325.377 75.664 325.785 74.19 325.785H66.1865V310ZM68.9605 312.411V316.581H73.3789C74.0715 316.581 74.6344 316.385 75.0714 315.996C75.5085 315.603 75.727 315.1 75.727 314.485C75.727 313.885 75.5085 313.389 75.0714 312.996C74.6344 312.603 74.0715 312.411 73.3789 312.411H68.9605ZM68.9605 318.907V323.37H73.8085C74.5455 323.37 75.1492 323.159 75.6233 322.74C76.0973 322.318 76.3344 321.785 76.3344 321.14C76.3344 320.496 76.0973 319.959 75.6233 319.54C75.1492 319.118 74.5455 318.907 73.8085 318.907H68.9605Z" fill="#212121"></path>
<path d="M84.8564 310V325.785H82.0823V310H84.8564Z" fill="#212121"></path>
<path d="M88.3267 325.784V309.999H91.1007V321.047L102.33 310.133H103.908V325.781H101.134V314.866L89.9045 325.781H88.3267V325.784ZM94.4155 306.144C94.4155 306.596 94.5747 306.966 94.8895 307.259C95.2043 307.551 95.6191 307.7 96.1302 307.7C96.6413 307.7 97.0598 307.551 97.3821 307.259C97.7043 306.966 97.8672 306.592 97.8672 306.144H99.6487C99.6487 307.122 99.3228 307.922 98.6672 308.544C98.0117 309.166 97.1747 309.481 96.1525 309.481C95.1155 309.481 94.2673 309.17 93.6044 308.544C92.9414 307.918 92.6118 307.118 92.6118 306.144H94.4155Z" fill="#212121"></path>
<path d="M113.126 325.785V310H115.9V316.585H125.778V310H128.574V325.785H125.778V318.996H115.9V325.785H113.126Z" fill="#212121"></path>
<path d="M138.626 310H139.911L147.87 325.785H144.781L143.337 322.785H135.2L133.755 325.785H130.667L138.626 310ZM136.37 320.374H142.166L139.281 314.351L136.37 320.374Z" fill="#212121"></path>
<path d="M148.863 329.392V323.37H150.577C151.225 322.873 151.692 321.836 151.988 320.259C152.281 318.681 152.429 316.251 152.429 312.974V309.996H164.673V323.366H166.929V329.388H164.155V325.781H151.64V329.388H148.863V329.392ZM161.896 323.37V312.411H155.062V313.381C155.062 318.207 154.596 321.536 153.662 323.37H161.896Z" fill="#212121"></path>
<path d="M172.04 310V325.785H169.266V310H172.04Z" fill="#212121"></path>
<path d="M175.51 325.784V309.999H178.284V321.047L189.513 310.133H191.091V325.781H188.317V314.866L177.088 325.781H175.51V325.784ZM181.599 306.144C181.599 306.596 181.758 306.966 182.073 307.259C182.388 307.551 182.802 307.7 183.314 307.7C183.825 307.7 184.243 307.551 184.565 307.259C184.888 306.966 185.051 306.592 185.051 306.144H186.828C186.828 307.122 186.502 307.922 185.847 308.544C185.191 309.166 184.354 309.481 183.332 309.481C182.295 309.481 181.447 309.17 180.784 308.544C180.121 307.918 179.791 307.118 179.791 306.144H181.599Z" fill="#212121"></path>
<path d="M194.606 325.785V310H197.38V316.585H207.257V310H210.054V325.785H207.257V318.996H197.38V325.785H194.606Z" fill="#212121"></path>
<path d="M213.498 325.785V310H216.272V321.048L227.501 310.133H229.079V325.781H226.305V314.866L215.075 325.781H213.498V325.785Z" fill="#212121"></path>
<path d="M232.594 325.784V309.999H235.368V321.047L246.597 310.133H248.175V325.781H245.401V314.866L234.172 325.781H232.594V325.784ZM238.683 306.144C238.683 306.596 238.842 306.966 239.157 307.259C239.471 307.551 239.886 307.7 240.397 307.7C240.908 307.7 241.327 307.551 241.649 307.259C241.971 306.966 242.134 306.592 242.134 306.144H243.916C243.916 307.122 243.59 307.922 242.934 308.544C242.279 309.166 241.442 309.481 240.42 309.481C239.383 309.481 238.534 309.17 237.872 308.544C237.209 307.918 236.879 307.118 236.879 306.144H238.683Z" fill="#212121"></path>
<path d="M256.267 329.392V323.37H257.982C258.63 322.873 259.097 321.836 259.393 320.259C259.686 318.681 259.834 316.251 259.834 312.974V309.996H272.078V323.366H274.333V329.388H271.559V325.781H259.045V329.388H256.267V329.392ZM269.3 323.37V312.411H262.467V313.381C262.467 318.207 262 321.536 261.067 323.37H269.3Z" fill="#212121"></path>
<path d="M276.67 325.785V310H283.774C285.337 310 286.611 310.448 287.596 311.34C288.581 312.233 289.074 313.389 289.074 314.803C289.074 316.233 288.581 317.392 287.596 318.288C286.611 319.185 285.337 319.629 283.774 319.629H279.444V325.785H276.67ZM283.526 317.214C284.322 317.214 284.97 316.988 285.466 316.537C285.963 316.085 286.211 315.507 286.211 314.8C286.211 314.092 285.959 313.518 285.455 313.074C284.952 312.629 284.311 312.407 283.526 312.407H279.444V317.211H283.526V317.214Z" fill="#212121"></path>
<path d="M293.2 310L298.159 318.748L302.87 310H306.048L298.696 323.099C297.644 325.01 296.244 325.962 294.503 325.962C293.737 325.962 293.037 325.796 292.407 325.466V323.233C292.829 323.503 293.333 323.64 293.918 323.64C294.985 323.64 295.826 323.062 296.444 321.903L296.759 321.318L289.97 310H293.2Z" fill="#212121"></path>
<path d="M319.488 310V312.411H310.944V325.781H308.17V309.996H319.488V310Z" fill="#212121"></path>
<path d="M208.383 207.524C208.435 207.543 208.487 207.569 208.545 207.588C208.5 207.575 208.454 207.556 208.409 207.537C208.403 207.537 208.39 207.53 208.383 207.524Z" fill="url(#paint1_linear)"></path>
<path d="M208.26 207.466C208.306 207.492 208.344 207.511 208.383 207.524C206.777 206.976 205.79 205.208 205.216 203.434C205.745 205.105 206.686 206.511 208.189 207.421C208.215 207.446 208.235 207.459 208.26 207.466Z" fill="url(#paint2_linear)"></path>
<path d="M210.86 207.711C210.428 207.717 209.996 207.724 209.564 207.711C209.925 207.717 210.37 207.724 210.86 207.711Z" fill="url(#paint3_linear)"></path>
<path d="M209.19 207.698C209.312 207.711 209.441 207.705 209.564 207.711C209.422 207.711 209.299 207.705 209.19 207.698Z" fill="url(#paint4_linear)"></path>
<path d="M211.222 207.705C211.402 207.705 211.59 207.698 211.77 207.698C211.583 207.698 211.402 207.705 211.222 207.705Z" fill="url(#paint5_linear)"></path>
<path d="M214.312 207.614C213.467 207.666 212.622 207.685 211.77 207.698C212.693 207.679 213.641 207.64 214.312 207.614Z" fill="url(#paint6_linear)"></path>
<path d="M218.582 208.195C218.55 208.175 218.511 208.156 218.479 208.143C218.511 208.156 218.55 208.175 218.582 208.188C218.647 208.227 218.705 208.259 218.776 208.298C218.711 208.259 218.647 208.227 218.582 208.195Z" fill="url(#paint7_linear)"></path>
<path d="M219.395 208.614C219.369 208.588 219.343 208.569 219.318 208.55C219.363 208.582 219.408 208.614 219.453 208.653C219.434 208.633 219.414 208.621 219.395 208.614Z" fill="url(#paint8_linear)"></path>
<path d="M218.285 225.2C219.311 224.768 220.189 224.142 220.911 223.381V223.387C220.189 224.155 219.311 224.774 218.285 225.2Z" fill="url(#paint9_linear)"></path>
<path d="M328.367 39.5121C328.367 41.0346 328.141 42.5893 327.864 44.1118C327.851 44.1827 327.831 44.2537 327.818 44.3246C323.774 46.1503 318.348 47.2986 314.29 45.9503C313.884 45.8148 313.484 45.6471 313.097 45.46C312.82 45.3246 312.562 45.1826 312.31 45.0278C311.42 44.4924 310.62 43.8473 309.917 43.1312C309.884 43.0989 309.852 43.0667 309.826 43.0344C306.181 38.9767 307.478 32.9578 310.355 27.8615C310.381 27.8486 311.097 27.8034 311.2 27.797C314.187 27.6099 317.31 27.9389 320.161 28.8614C322.69 29.6807 325.09 31.1515 326.625 33.3643C327.947 35.2673 328.373 37.3639 328.367 39.5121Z" fill="#D6362D"></path>
<path d="M327.825 44.3246C327.741 44.3633 327.664 44.402 327.586 44.4343C323.541 46.2664 318.322 47.3244 314.297 45.9503C318.355 47.2986 323.78 46.1503 327.825 44.3246Z" fill="#D6362D"></path>
<path d="M327.825 44.3246C327.812 44.4278 327.715 44.6923 327.599 44.9761L322.483 56.9429L322.413 57.1106L320.935 60.6716C320.755 60.7361 320.568 60.8071 320.387 60.8716C320.239 60.9232 320.097 60.9813 319.948 61.0264C319.942 61.0329 319.942 61.0329 319.935 61.0329C316.684 62.2005 313.349 63.1811 309.949 63.9681C308.117 64.4003 306.259 64.7681 304.395 65.0842C295.886 66.5227 287.106 66.8001 278.423 65.8389C261.005 62.5747 246.729 54.5883 232.82 46.1825C233.007 44.8149 233.162 43.4472 233.297 42.0732C233.891 36.2672 234.168 30.4225 235.026 24.6488C236.046 17.7913 238.02 10.9854 240.529 4.62467C240.555 4.56016 240.581 4.4892 240.606 4.42469C240.632 4.35373 240.658 4.28922 240.69 4.22471C240.826 3.8828 240.955 3.54735 241.09 3.20544C241.226 2.86353 241.361 2.52807 241.49 2.18617C241.555 2.01844 241.626 1.84426 241.69 1.67653C241.755 1.50235 241.819 1.33463 241.884 1.16045C241.948 0.99272 242.006 0.824988 242.071 0.65726C242.097 0.573396 242.129 0.502434 242.161 0.425021C242.174 0.412119 242.174 0.392766 242.181 0.379864C242.193 0.347609 242.213 0.315357 242.226 0.283102C242.239 0.250846 242.245 0.21859 242.258 0.186335L242.264 0.166982C252.87 -0.471674 265.862 0.534689 274.655 6.48258C292.389 18.4816 276.52 21.9587 299.718 26.7519C303.317 27.5002 306.962 27.6937 310.362 27.8614C307.485 32.9578 306.188 38.9767 309.833 43.0344C309.859 43.0666 309.891 43.0989 309.923 43.1311C310.562 43.8279 311.355 44.4665 312.317 45.0278C312.568 45.1826 312.826 45.3245 313.104 45.46H313.11C313.491 45.6471 313.891 45.8148 314.297 45.9503C318.355 47.2985 323.78 46.1502 327.825 44.3246Z" fill="url(#paint10_linear)"></path>
<path d="M272.604 123.608C272.468 124.473 272.32 125.331 272.158 126.176C271.675 128.756 271.036 131.298 270.165 133.775C270.159 133.795 270.152 133.82 270.146 133.84C270.126 133.885 270.126 133.891 270.1 133.969C269.997 134.272 269.888 134.562 269.778 134.84C269.765 134.872 269.752 134.904 269.739 134.93C269.301 136.014 268.843 136.936 268.307 138.001C267.997 138.62 267.546 139.562 267.185 140.142C266.946 140.536 266.727 140.923 266.475 141.297C266.398 141.426 266.307 141.542 266.217 141.665C258.076 152.903 240.677 157.399 221.414 169.585C214.131 174.198 209.409 181.571 206.454 189.571C205.222 192.919 203.822 199.054 205.216 203.434C205.254 203.544 205.293 203.66 205.332 203.769C205.364 203.86 205.396 203.956 205.435 204.04C205.435 204.06 205.441 204.079 205.454 204.098C205.628 204.563 205.841 205.014 206.08 205.427C206.68 206.459 207.48 207.292 208.544 207.588C209.106 207.814 209.893 207.717 210.493 207.724C210.828 207.73 211.163 207.717 211.505 207.698C213.073 207.634 214.699 207.401 216.247 207.427C217.46 207.446 219.085 208.156 220.001 208.93C222.13 210.73 223.072 213.272 223.401 216.039C223.466 216.568 223.298 217.291 223.266 217.826C223.246 218.175 223.195 218.517 223.13 218.858C223.085 219.123 223.027 219.375 222.956 219.633C222.93 219.723 222.904 219.813 222.879 219.897C222.498 221.2 221.846 222.374 220.95 223.335C220.937 223.348 220.924 223.368 220.911 223.387C220.73 223.574 220.537 223.761 220.33 223.935C220.24 224.019 220.15 224.09 220.06 224.168C220.047 224.174 220.034 224.187 220.027 224.193C219.498 224.613 218.924 224.961 218.298 225.213C217.892 225.374 217.453 225.49 216.995 225.568C216.802 225.613 216.602 225.638 216.395 225.664C216.292 225.677 216.182 225.69 216.079 225.703H216.034C215.615 225.742 215.208 225.761 214.815 225.761H189.727C186.533 225.761 184.211 224.561 182.508 222.658C178.186 217.833 177.837 208.492 177.244 202.757C176.631 196.847 176.379 190.312 176.682 184.326C176.695 184.029 176.695 183.726 176.702 183.429C176.721 182.758 176.741 182.094 176.76 181.423C176.799 180.455 176.837 179.481 176.889 178.507C176.953 177.301 177.024 176.088 177.115 174.881C177.218 173.494 177.334 172.114 177.476 170.733C177.502 170.495 177.54 170.25 177.586 170.017C177.94 168.359 178.876 166.83 179.656 165.36C180.695 163.405 181.805 161.489 182.959 159.605C184.669 156.825 186.488 154.115 188.333 151.425C189.023 150.413 189.72 149.406 190.41 148.4C192.552 145.284 194.765 142.22 197.068 139.239C197.242 139.013 197.416 138.788 197.597 138.562C207.467 125.911 219.027 114.77 233.51 107.403C240.193 104.003 247.793 101.52 255.263 99.9909C255.315 99.978 255.366 99.9651 255.418 99.9587C255.45 99.9458 255.489 99.9393 255.528 99.9328C255.979 99.8361 256.437 99.7458 256.895 99.6619C257.437 99.5522 257.979 99.4619 258.521 99.3716C259.037 99.2813 259.559 99.1974 260.076 99.1265C260.998 98.991 261.908 98.8684 262.83 98.7458C263.443 99.5974 264.114 100.404 264.791 101.152C267.178 103.784 269.681 105.726 270.075 106.3C272.055 108.939 272.874 111.958 273.081 115.086C273.274 117.918 273.036 120.789 272.604 123.608Z" fill="url(#paint11_linear)"></path>
<path d="M185.92 225.006C185.611 224.884 185.314 224.735 185.017 224.581C185.308 224.735 185.611 224.877 185.92 225.006Z" fill="url(#paint12_linear)"></path>
<path d="M320.935 60.6716L320.903 60.7554C320.735 61.1812 320.619 61.4651 320.49 61.8779C320.458 61.9811 320.413 62.1102 320.361 62.2521C320.193 62.7166 319.948 63.3488 319.658 64.0261C319.155 65.1744 318.413 66.6388 317.368 68.2838C315.865 70.632 313.716 73.335 310.704 75.9864C310.6 76.0767 310.504 76.1671 310.4 76.2574C309.897 76.6896 309.362 77.1283 308.807 77.554C308.588 77.7218 308.362 77.8959 308.136 78.0637C302.156 82.502 293.454 86.463 280.861 87.8564C274.526 88.4305 268.146 88.5209 261.798 88.1209C261.746 88.1209 261.695 88.1209 261.637 88.1144C261.572 88.1144 261.508 88.108 261.443 88.108C257.779 87.8693 254.134 87.4822 250.515 86.9274C245.625 86.192 240.787 85.1663 236.032 83.8632C231.085 82.502 226.233 80.8376 221.518 78.8765C223.904 75.3671 226.691 70.2579 229.014 63.181C229.962 60.3103 230.833 57.117 231.562 53.5689C232.046 51.2595 232.471 48.8016 232.82 46.1825C246.728 54.5882 261.005 62.5746 278.423 65.8389C287.106 66.8001 295.886 66.5227 304.395 65.0841C306.259 64.768 308.117 64.4003 309.949 63.9681C313.349 63.181 316.684 62.2005 319.935 61.0328C319.942 61.0328 319.942 61.0328 319.948 61.0264C320.096 60.9812 320.238 60.9232 320.387 60.8716C320.567 60.807 320.754 60.7361 320.935 60.6716Z" fill="url(#paint13_linear)"></path>
<path d="M216.395 225.664C216.305 225.684 216.221 225.696 216.137 225.703H216.079C216.182 225.69 216.292 225.677 216.395 225.664Z" fill="#D6362D"></path>
<path d="M224.724 196.699C224.621 199.112 225.246 201.24 225.717 202.944C227.395 209.22 234.407 207.105 239.039 207.485C240.916 207.64 242.935 207.859 244.645 210.949C247.354 215.839 246.193 221.845 242.316 224.097C242.303 224.103 242.297 224.11 242.284 224.116C242.245 224.142 242.2 224.168 242.155 224.193C241.194 224.722 240.065 225.019 238.787 225.019L216.138 225.703C216.221 225.697 216.305 225.684 216.396 225.664H216.402C216.602 225.638 216.802 225.613 216.996 225.567C217.454 225.49 217.892 225.374 218.299 225.213C218.924 224.961 219.499 224.613 220.028 224.193C220.034 224.187 220.047 224.174 220.06 224.168C220.15 224.09 220.24 224.019 220.331 223.935C220.537 223.761 220.731 223.574 220.911 223.387V223.381C220.924 223.368 220.937 223.348 220.95 223.335C221.847 222.374 222.498 221.2 222.879 219.897C222.905 219.813 222.931 219.723 222.956 219.633C223.027 219.374 223.085 219.123 223.131 218.858C223.195 218.516 223.247 218.175 223.266 217.826C223.298 217.291 223.466 216.568 223.401 216.039C223.072 213.272 222.131 210.73 220.002 208.93C219.086 208.156 217.46 207.446 216.247 207.427C214.699 207.401 213.073 207.634 211.506 207.698C211.164 207.717 210.828 207.73 210.493 207.724C209.893 207.717 209.106 207.814 208.545 207.588C207.48 207.292 206.68 206.459 206.08 205.427C205.842 205.014 205.629 204.563 205.455 204.098C205.442 204.079 205.435 204.06 205.435 204.04C205.396 203.956 205.364 203.86 205.332 203.769C205.293 203.66 205.255 203.544 205.216 203.434C203.822 199.054 205.222 192.919 206.454 189.571C209.409 181.571 214.131 174.198 221.415 169.585C240.677 157.399 258.076 152.903 266.217 141.665C266.308 141.542 266.398 141.426 266.475 141.297C266.727 140.923 266.946 140.536 267.185 140.142C267.546 139.562 267.998 138.62 268.307 138.001C268.843 136.936 269.301 136.014 269.74 134.93C269.752 134.904 269.765 134.872 269.778 134.84C269.888 134.562 269.998 134.272 270.101 133.969C270.127 133.891 270.127 133.885 270.146 133.84C270.114 133.988 270.094 134.098 270.043 134.259C267.34 143.265 255.644 158.896 245.135 171.12C238.478 178.855 230.311 183.552 227.466 188.487C225.182 192.448 224.84 194.228 224.724 196.699Z" fill="#D6362D"></path>
<path d="M262.83 98.7458C261.914 98.8619 260.998 98.9909 260.075 99.1264C259.559 99.1974 259.037 99.2812 258.521 99.3715C257.979 99.4619 257.437 99.5522 256.895 99.6619C248.909 101.146 240.677 103.758 233.51 107.403C219.027 114.77 207.467 125.911 197.597 138.562C197.416 138.788 197.242 139.013 197.068 139.239C196.545 139.897 196.036 140.562 195.526 141.226C194.849 142.123 194.178 143.026 193.513 143.936C192.849 144.845 192.191 145.768 191.546 146.69C190.894 147.613 190.255 148.548 189.623 149.483C189.191 150.129 188.759 150.774 188.333 151.425C186.488 154.115 184.669 156.825 182.959 159.605C181.805 161.489 180.695 163.405 179.656 165.36C178.876 166.83 177.94 168.359 177.586 170.017C177.56 170.069 177.547 170.12 177.54 170.179C177.398 170.12 177.263 170.062 177.121 170.004C175.412 169.288 173.708 168.553 172.012 167.811C169.728 166.811 167.909 165.992 167.29 165.624C167.012 165.469 166.741 165.314 166.464 165.166C165.651 164.714 164.832 164.308 163.922 164.063C162.98 163.811 162.006 163.74 161.032 163.805C160.903 163.811 160.774 163.818 160.645 163.831C160.387 163.857 160.135 163.889 159.877 163.927C159.948 163.844 160.026 163.753 160.097 163.669C160.193 163.553 160.284 163.444 160.374 163.327C161.116 162.457 161.832 161.56 162.516 160.637C162.858 160.179 163.193 159.715 163.522 159.244C163.664 159.044 163.8 158.844 163.929 158.644C164.761 157.438 165.548 156.199 166.296 154.935C166.554 154.502 166.806 154.064 167.051 153.625C167.425 152.974 167.793 152.309 168.141 151.638C168.502 150.974 168.844 150.303 169.18 149.625C169.412 149.174 169.631 148.722 169.844 148.271C170.07 147.819 170.283 147.361 170.489 146.91C170.915 146 171.328 145.084 171.734 144.168C171.967 143.639 172.192 143.116 172.418 142.587C172.87 141.536 173.308 140.491 173.734 139.446C177.179 131.027 180.03 122.318 183.404 113.854C184.024 112.409 184.604 110.964 185.191 109.526C187.352 104.487 189.83 99.5973 192.687 94.9139C196.448 94.501 200.429 93.5978 204.48 91.9786C204.506 91.9657 204.538 91.9593 204.57 91.9399C204.577 91.9335 204.583 91.9335 204.59 91.9335C211.105 89.295 216.847 85.3405 220.975 79.6442C221.163 79.399 221.343 79.141 221.517 78.8829C226.233 80.8441 231.084 82.502 236.032 83.8632C240.787 85.1663 245.625 86.192 250.515 86.9274C254.134 87.4822 257.779 87.8693 261.443 88.108C261.508 88.108 261.572 88.1144 261.637 88.1144C259.521 90.9206 260.25 94.1784 261.585 96.7911C261.604 96.8169 261.617 96.8492 261.637 96.875C261.991 97.5136 262.398 98.1394 262.83 98.7458Z" fill="url(#paint14_linear)"></path>
<path d="M192.681 94.9139C189.83 99.5974 187.353 104.487 185.192 109.526C186.269 106.881 187.488 104.294 188.804 101.759C189.249 100.901 191.707 95.0494 192.681 94.9139Z" fill="url(#paint15_linear)"></path>
<path d="M173.876 95.6686C173.863 95.6815 173.851 95.688 173.838 95.6944C171.96 96.6685 170.083 97.9523 168.838 98.7006C168.799 98.7264 168.761 98.7522 168.722 98.778C168.696 98.7974 168.664 98.8103 168.638 98.8297C158.845 106.184 150.311 114.474 141.55 123.034C129.493 134.82 116.875 151.541 99.16 154.315C95.7345 154.844 92.4251 155.077 89.0576 155.941C92.8702 152.812 100.05 144.374 105.147 131.524C105.366 130.975 105.585 130.44 105.805 129.911C112.559 113.609 119.397 108.906 125.564 107.152C126.138 106.99 126.706 106.848 127.267 106.732C127.274 106.732 127.28 106.726 127.293 106.726C131.777 105.771 136.312 105.094 140.789 104.1C144.479 103.281 148.175 102.494 151.852 101.636C159.265 99.9199 166.625 97.9652 173.876 95.6686Z" fill="url(#paint16_linear)"></path>
<path d="M172.012 167.811C165.471 173.475 156.097 183.836 146.176 186.809C139.821 188.713 137.215 188.693 129.429 189.725C126.693 190.08 118.733 189.029 114.804 192.17C111.695 194.654 108.798 198.467 108.611 202.595C108.372 207.711 113.559 208.124 117.475 208.227C123.674 208.395 125.216 217.581 122.378 222.729C122.332 222.826 122.274 222.923 122.216 223.019C121.113 224.871 119.397 226.129 117.094 226.129H100.954C102.347 225.632 103.463 224.664 104.282 223.432C104.373 223.297 104.463 223.155 104.54 223.013C107.701 217.678 106.005 208.111 99.1279 207.93C98.844 207.924 98.5602 207.924 98.2699 207.924C98.2053 207.924 98.1344 207.924 98.0699 207.93C97.4506 207.93 96.799 207.963 96.1152 208.021C95.812 208.046 95.5282 208.059 95.2572 208.066C89.2706 207.84 91.522 201.363 93.2122 196.209C94.7347 191.209 99.8891 186.558 104.121 183.765C108.785 180.694 114.256 178.959 119.849 178.907C127.28 178.842 134.589 177.397 141.337 174.217C147.679 171.23 152.691 165.031 159.878 163.928C160.136 163.889 160.387 163.857 160.645 163.831C160.774 163.818 160.903 163.811 161.032 163.805C162.006 163.74 162.981 163.811 163.922 164.063C164.832 164.308 165.651 164.715 166.464 165.166C166.742 165.314 167.013 165.469 167.29 165.624C167.909 165.992 169.728 166.811 172.012 167.811Z" fill="#D6362D"></path>
<path d="M59.1376 149.471C74.7621 144.265 88.2126 135.582 99.0633 122.563C103.644 117.177 108.895 112.287 114.914 108.945C113.23 109.28 107.85 110.306 102.998 112.829C102.682 112.996 100.579 114.274 100.289 114.486C98.3343 115.925 91.2962 121.215 78.665 127.95C75.1685 129.814 71.4204 131.698 67.4401 133.504C67.4401 133.504 50.5318 143.11 27.3467 137.517C23.6954 136.627 20.2376 139.723 21.1472 143.026C21.1988 143.2 21.2504 143.387 21.3085 143.568C32.5785 150.593 45.371 154.141 59.1376 149.471Z" fill="url(#paint17_linear)"></path>
<path d="M115.12 108.9C115.062 108.913 114.991 108.926 114.914 108.939C108.888 112.287 103.644 117.17 99.0634 122.557C88.2127 135.575 74.7622 144.258 59.1377 149.464C45.3711 154.135 32.5786 150.587 21.3086 143.555C21.4505 144.045 21.6053 144.542 21.7924 145.058C22.6633 147.464 23.7471 149.761 25.1728 151.896C26.4049 153.741 27.9016 155.49 29.5789 156.98C31.3981 158.592 33.4947 159.844 35.3526 161.405C35.3526 161.405 52.0673 175.443 74.0913 164.527C74.0913 164.527 75.0396 164.089 76.6072 163.308C79.6263 159.754 83.8518 157.386 88.4578 156.096C88.903 155.973 89.3739 155.793 89.8706 155.541C89.8642 155.541 89.8513 155.548 89.8513 155.548C93.4832 152.825 99.7924 145.026 105.14 131.524C105.36 130.975 105.573 130.434 105.798 129.905C112.553 113.603 119.391 108.906 125.564 107.152C126.132 106.984 126.7 106.848 127.261 106.726C124.274 107.39 119.146 107.952 115.12 108.9Z" fill="url(#paint18_linear)"></path>
<path d="M360.487 82.9408C360.19 84.9599 359.912 86.9727 359.616 88.9854C359.377 92.0626 359.254 94.4108 359.254 94.4108C355.803 93.1141 352.836 93.3012 349.281 92.8174C347.559 92.6561 345.823 92.5271 344.088 92.398C338.888 92.0174 333.663 91.6497 328.567 90.4756C326.889 90.1466 325.244 89.7595 323.644 89.3015C318.819 87.9339 314.336 85.9212 310.446 82.8053C309.659 81.9666 309.33 80.9603 309.278 79.8378C309.271 79.683 309.271 79.5217 309.271 79.3604C309.594 79.6314 309.942 79.87 310.336 80.0636C310.691 80.7345 311.175 81.3151 311.845 81.7731C316.826 84.2761 322.18 85.4115 327.722 85.7599C329.573 85.8695 331.444 85.9018 333.334 85.8631C339.121 85.9276 344.849 85.0696 350.558 84.2374C352.461 83.96 354.364 83.6826 356.261 83.4504C357.751 83.3278 359.125 83.1214 360.487 82.9408Z" fill="#A0C01B"></path>
<path d="M367.415 82.7988C364.893 82.4247 362.719 82.644 360.487 82.9407C359.132 83.1214 357.751 83.3278 356.261 83.4504C354.358 83.6891 352.455 83.96 350.558 84.2374C344.849 85.0696 339.121 85.9211 333.334 85.8631C331.444 85.9018 329.573 85.8695 327.722 85.7599C322.18 85.4115 316.826 84.2761 311.846 81.7731C311.181 81.3151 310.691 80.7409 310.336 80.0636C310.626 80.2055 310.942 80.3281 311.278 80.4184C317.471 81.2635 323.599 80.5797 329.676 79.012C331.702 78.4895 333.728 77.8702 335.74 77.1799C338.721 76.2574 341.604 75.122 344.449 73.877C347.572 72.5158 350.636 71.0256 353.7 69.5419C355.648 68.6 357.603 67.6582 359.571 66.755C361.699 65.8841 363.538 64.9229 365.448 64.0843C365.654 68.3162 366.106 72.5158 366.435 76.7219C366.957 80.1797 367.415 82.7988 367.415 82.7988Z" fill="#A0C01B"></path>
<path d="M368.241 56.3236C365.892 50.7241 363.318 43.4602 361.403 37.6284C361.403 37.9832 357.848 39.6798 357.454 39.9379C352.539 43.1118 347.178 45.7051 342.024 48.4597C336.843 51.2208 331.566 53.9432 325.993 55.8269C324.818 56.201 323.651 56.5687 322.483 56.9429L322.412 57.1106L320.935 60.6716L320.903 60.7555C320.735 61.1813 320.619 61.4651 320.49 61.878C320.458 61.9812 320.412 62.1102 320.361 62.2521C320.193 62.7166 319.948 63.3488 319.658 64.0262C319.154 65.1745 318.413 66.6389 317.367 68.2839C315.864 70.6321 313.716 73.3351 310.704 75.9865C310.6 76.0768 310.504 76.1671 310.4 76.2574C309.897 76.6896 309.362 77.1283 308.807 77.5541C308.588 77.7218 308.362 77.896 308.136 78.0637C308.471 78.5476 308.846 78.9927 309.278 79.3604C309.6 79.6313 309.949 79.87 310.336 80.0636C310.626 80.2055 310.942 80.3216 311.278 80.4184C317.471 81.2699 323.599 80.5796 329.676 79.012C331.702 78.496 333.721 77.8766 335.74 77.1799C338.721 76.2574 341.604 75.122 344.449 73.8834C345.049 73.6189 345.649 73.3544 346.242 73.077C346.739 72.8577 347.236 72.6255 347.733 72.3932C347.804 72.361 347.875 72.3287 347.946 72.2965C348.907 71.8513 349.868 71.3933 350.829 70.9288C351.784 70.4708 352.745 70.0128 353.7 69.5483C355.655 68.6 357.603 67.6581 359.57 66.755C361.699 65.8841 363.538 64.9229 365.447 64.0843C367.26 63.2908 369.124 62.6134 371.337 62.2263C371.337 62.2263 369.97 59.6911 368.241 56.3236ZM348.629 63.4972C347.152 65.8325 344.107 68.0194 340.256 69.2322C334.024 71.1933 328.031 69.8902 326.857 66.3228C326.644 65.6583 326.605 64.9745 326.728 64.2713C327.27 61.1813 330.934 57.8977 336.011 56.2978C342.236 54.3367 348.236 55.6398 349.404 59.2072C349.855 60.5684 349.533 62.0651 348.629 63.4972Z" fill="#A0C01B"></path>
<path d="M348.623 63.4972C347.146 65.8325 344.107 68.013 340.25 69.2322C334.018 71.1934 328.025 69.8902 326.851 66.3228C326.638 65.6648 326.593 64.9745 326.722 64.2778C327.264 61.1813 330.928 57.9042 336.011 56.3043C342.237 54.3432 348.23 55.6463 349.404 59.2137C349.855 60.5684 349.533 62.0651 348.623 63.4972Z" fill="white"></path>
<path d="M192.681 94.914C189.83 99.5975 187.353 104.487 185.192 109.526C184.579 110.958 183.985 112.403 183.405 113.854C180.031 122.318 177.179 131.027 173.735 139.446C173.309 140.491 172.87 141.536 172.419 142.587C172.193 143.116 171.967 143.639 171.735 144.168C171.328 145.084 170.915 146 170.49 146.91C170.277 147.361 170.064 147.819 169.845 148.271C169.625 148.722 169.406 149.174 169.18 149.626C168.838 150.303 168.496 150.974 168.141 151.638C168.141 151.645 168.141 151.645 168.141 151.645C167.78 152.309 167.419 152.974 167.051 153.625C166.806 154.064 166.555 154.503 166.296 154.935C165.548 156.199 164.761 157.438 163.929 158.644C163.8 158.844 163.664 159.044 163.523 159.244C163.194 159.715 162.858 160.18 162.516 160.638C161.832 161.56 161.116 162.457 160.374 163.328C160.284 163.444 160.194 163.553 160.097 163.67C160.026 163.753 159.949 163.844 159.878 163.928C152.691 165.031 147.679 171.23 141.337 174.217C134.589 177.397 127.28 178.842 119.849 178.907C114.256 178.959 108.785 180.694 104.121 183.765C99.8891 186.558 94.7347 191.209 93.2123 196.209C91.5221 201.363 89.2707 207.84 95.2573 208.066C95.5282 208.059 95.812 208.047 96.1152 208.021C96.7991 207.963 97.4506 207.93 98.0699 207.93C98.1344 207.924 98.2054 207.924 98.2699 207.924C98.5602 207.924 98.8441 207.924 99.1279 207.93C106.005 208.111 107.701 217.678 104.54 223.013C104.463 223.155 104.373 223.297 104.282 223.432C103.463 224.664 102.347 225.632 100.954 226.129C100.928 226.142 100.895 226.148 100.87 226.161C100.231 226.38 99.5343 226.503 98.7731 226.509C98.7473 226.516 98.7279 226.516 98.7021 226.516H74.8138C72.872 226.516 71.027 225.942 69.4723 224.935C69.453 224.935 69.4336 224.942 69.4207 224.942C69.053 224.703 68.6982 224.439 68.3627 224.155H68.3563C67.0273 223.013 65.9952 221.523 65.4081 219.787C62.8922 212.324 62.0149 188.642 74.5557 166.282C75.1557 165.211 75.846 164.224 76.6201 163.315C79.6392 159.76 83.8646 157.393 88.4707 156.102C88.6642 156.051 88.8642 155.999 89.0578 155.941C92.4252 155.077 95.7346 154.844 99.1601 154.316C116.875 151.542 129.493 134.82 141.55 123.034C150.311 114.474 158.845 106.184 168.638 98.8298C168.664 98.8105 168.696 98.7975 168.722 98.7782C168.761 98.7524 168.799 98.7266 168.838 98.7008C170.083 97.9525 171.961 96.6687 173.838 95.6946C173.851 95.6881 173.864 95.6817 173.876 95.6688H173.883C174.896 95.3462 175.921 95.0172 176.954 94.6753C176.967 94.6689 176.979 94.6689 176.992 94.6624C177.212 94.5721 177.431 94.4818 177.657 94.3915C177.702 94.3721 177.754 94.3528 177.799 94.3334C181.863 95.0882 187.011 95.5591 192.681 94.914Z" fill="url(#paint19_linear)"></path>
<path opacity="0.5" d="M360.487 82.9408C359.132 83.1214 357.751 83.3278 356.261 83.4504C354.358 83.6891 352.455 83.96 350.558 84.2374C344.849 85.0696 339.121 85.9212 333.334 85.8631C331.444 85.9018 329.573 85.8695 327.722 85.7599C322.18 85.4115 316.826 84.2761 311.845 81.7731C311.181 81.3151 310.691 80.7409 310.336 80.0636C309.949 79.87 309.594 79.6314 309.271 79.3604C309.265 79.5217 309.265 79.683 309.278 79.8378C309.323 80.9603 309.652 81.9731 310.446 82.8053C314.336 85.9276 318.819 87.9339 323.644 89.3015C325.251 89.7595 326.896 90.1402 328.567 90.4756C333.457 91.6046 338.475 91.9852 343.475 92.3529C349.01 89.9466 354.539 87.5146 360.151 85.289C360.261 84.5084 360.37 83.7278 360.487 82.9408Z" fill="url(#paint20_linear)"></path>
<path opacity="0.5" d="M359.571 66.755C357.603 67.6581 355.655 68.6 353.7 69.5418C350.636 71.0256 347.572 72.5158 344.449 73.8769C341.604 75.1155 338.714 76.2574 335.74 77.1799C333.721 77.8702 331.702 78.4895 329.676 79.012C323.599 80.5796 317.471 81.2634 311.278 80.4183C310.942 80.3216 310.633 80.2054 310.336 80.0635C310.691 80.7344 311.175 81.315 311.846 81.7731C316.826 84.2761 322.18 85.4115 327.722 85.7598C329.573 85.8695 331.444 85.9017 333.334 85.863C334.424 85.8759 335.508 85.8566 336.592 85.805C346.61 80.8054 356.184 74.8575 365.802 69.2322C365.66 67.5162 365.538 65.8002 365.454 64.0778C363.538 64.9228 361.693 65.8841 359.571 66.755Z" fill="url(#paint21_linear)"></path>
<path opacity="0.5" d="M347.946 72.2964C347.875 72.3287 347.804 72.3609 347.733 72.3932C347.236 72.6254 346.739 72.8577 346.242 73.077C345.649 73.3544 345.049 73.6189 344.449 73.8834C341.604 75.122 338.721 76.2574 335.74 77.1799C333.721 77.8766 331.702 78.4959 329.676 79.012C323.599 80.5796 317.471 81.2698 311.278 80.4183C310.942 80.3215 310.626 80.2054 310.336 80.0635C309.949 79.87 309.6 79.6313 309.278 79.3603C308.846 78.9926 308.471 78.5475 308.136 78.0637C308.362 77.8959 308.588 77.7218 308.807 77.554C309.362 77.1283 309.897 76.6896 310.4 76.2574C310.504 76.167 310.6 76.0767 310.704 75.9864C313.716 73.335 315.864 70.632 317.367 68.2838C318.413 66.6388 319.154 65.1744 319.658 64.0261C319.948 63.3488 320.193 62.7166 320.361 62.2521C320.399 63.0133 320.528 63.781 320.754 64.5358C321.845 68.5354 325.489 71.0836 329.128 71.8126C335.398 72.5996 341.675 72.4448 347.946 72.2964Z" fill="url(#paint22_linear)"></path>
<path d="M240.555 0.19928C222.93 12.1273 216.692 34.9835 209.389 54.0464C203.009 71.045 190.301 83.8181 174.895 93.5979C174.425 93.2689 174.121 92.6819 174.141 92.0239C174.16 91.5207 174.186 91.0175 174.225 90.5143C174.405 88.0307 174.825 85.5534 175.186 83.0956C175.56 80.5797 175.973 78.0702 176.521 75.593C177.128 72.8706 177.895 70.1999 178.779 67.5743C178.992 66.9356 179.173 66.2647 179.431 65.639C179.527 65.4132 179.618 65.1939 179.702 64.9616C179.869 64.5165 180.037 64.0649 180.198 63.6198C180.45 62.9489 180.701 62.278 180.953 61.6071C181.269 60.7684 181.579 59.9362 181.895 59.104C182.25 58.1686 182.605 57.2268 182.966 56.2914C183.34 55.3108 183.721 54.3303 184.101 53.3497C184.475 52.3885 184.849 51.4273 185.237 50.4661C185.656 49.4016 186.095 48.3243 186.533 47.2599C188.927 41.4797 190.585 36.4027 193.036 30.6354C195.416 25.0295 198.81 18.1268 203.235 14.1013C207.202 10.4887 212.163 8.14056 216.944 6.20523C219.382 5.21822 221.866 4.32152 224.337 3.43127C226.356 2.70875 228.401 2.083 230.478 1.61852C231.723 1.34112 232.975 1.12824 234.232 0.954059C237.303 0.515386 239.309 0.302497 240.555 0.19928Z" fill="url(#paint23_linear)"></path>
<path d="M242.264 0.166946L242.258 0.186298C242.245 0.218554 242.238 0.25081 242.226 0.283066C242.213 0.315321 242.193 0.347572 242.18 0.379828C242.161 0.444339 242.135 0.508851 242.109 0.573362C242.096 0.599166 242.084 0.63142 242.077 0.657224C241.955 0.99268 241.819 1.32814 241.69 1.6765C241.626 1.84422 241.555 2.0184 241.49 2.18613C241.361 2.52804 241.226 2.86349 241.09 3.2054C240.955 3.54731 240.826 3.88277 240.69 4.22467C240.658 4.28918 240.632 4.35369 240.606 4.42465C240.58 4.48917 240.555 4.56013 240.529 4.62464C238.019 10.9854 236.045 17.7913 235.026 24.6488C234.168 30.4225 233.891 36.2672 233.297 42.0731C233.162 43.4472 233.007 44.8148 232.82 46.1825C232.471 48.8016 232.046 51.2595 231.562 53.569C230.833 57.117 229.962 60.3103 229.014 63.181C226.691 70.2579 223.904 75.3671 221.518 78.883C221.343 79.141 221.163 79.3926 220.976 79.6442C216.847 85.3405 211.106 89.295 204.59 91.9335C204.583 91.9335 204.577 91.9335 204.571 91.94C204.538 91.9593 204.506 91.9658 204.48 91.9787C200.429 93.5979 196.449 94.501 192.688 94.9139H192.681C187.011 95.559 181.863 95.0881 177.799 94.3333C176.966 94.1785 176.179 94.0172 175.444 93.843C175.244 93.7978 175.063 93.714 174.902 93.5979C190.307 83.818 203.016 71.0449 209.396 54.0463C216.699 34.9834 222.937 12.1272 240.561 0.199198C241.819 0.14759 242.038 0.173397 242.264 0.166946Z" fill="url(#paint24_linear)"></path>
<path opacity="0.15" d="M267.152 226.761C267.152 229.09 217.337 230.98 155.891 230.98C94.4378 230.98 44.6226 229.09 44.6226 226.761C44.6226 225.774 53.4928 224.871 68.3561 224.155H68.3625C68.698 224.439 69.0528 224.703 69.4205 224.942C69.4334 224.942 69.4527 224.935 69.4721 224.935C71.0268 225.942 72.8718 226.516 74.8136 226.516H98.7019C98.7277 226.516 98.7471 226.516 98.7729 226.509C99.5341 226.503 100.231 226.38 100.869 226.161C100.895 226.148 100.928 226.142 100.953 226.129H117.094C119.397 226.129 121.113 224.871 122.216 223.019C122.274 222.923 122.332 222.826 122.377 222.729C132.951 222.607 144.208 222.536 155.891 222.536C165.064 222.536 173.98 222.581 182.508 222.658C184.211 224.561 186.533 225.761 189.727 225.761H214.815C215.208 225.761 215.615 225.742 216.034 225.703H216.137L238.787 225.019C240.064 225.019 241.193 224.722 242.154 224.193C242.2 224.168 242.245 224.142 242.283 224.116C242.296 224.11 242.303 224.103 242.316 224.097C257.85 224.826 267.152 225.755 267.152 226.761Z" fill="#020203"></path>
<path d="M208.383 207.524C208.435 207.543 208.487 207.569 208.545 207.588C208.5 207.575 208.454 207.556 208.409 207.537C208.403 207.537 208.39 207.53 208.383 207.524Z" fill="url(#paint25_linear)"></path>
<path d="M208.26 207.466C208.306 207.492 208.344 207.511 208.383 207.524C206.777 206.976 205.79 205.208 205.216 203.434C205.745 205.105 206.686 206.511 208.189 207.421C208.215 207.446 208.235 207.459 208.26 207.466Z" fill="url(#paint26_linear)"></path>
<path d="M210.86 207.711C210.428 207.717 209.996 207.724 209.564 207.711C209.925 207.717 210.37 207.724 210.86 207.711Z" fill="url(#paint27_linear)"></path>
<path d="M209.19 207.698C209.312 207.711 209.441 207.705 209.564 207.711C209.422 207.711 209.299 207.705 209.19 207.698Z" fill="url(#paint28_linear)"></path>
<path d="M211.222 207.705C211.402 207.705 211.59 207.698 211.77 207.698C211.583 207.698 211.402 207.705 211.222 207.705Z" fill="url(#paint29_linear)"></path>
<path d="M214.312 207.614C213.467 207.666 212.622 207.685 211.77 207.698C212.693 207.679 213.641 207.64 214.312 207.614Z" fill="url(#paint30_linear)"></path>
<path d="M218.582 208.195C218.55 208.175 218.511 208.156 218.479 208.143C218.511 208.156 218.55 208.175 218.582 208.188C218.647 208.227 218.705 208.259 218.776 208.298C218.711 208.259 218.647 208.227 218.582 208.195Z" fill="url(#paint31_linear)"></path>
<path d="M219.395 208.614C219.369 208.588 219.343 208.569 219.318 208.55C219.363 208.582 219.408 208.614 219.453 208.653C219.434 208.633 219.414 208.621 219.395 208.614Z" fill="url(#paint32_linear)"></path>
<path d="M218.285 225.2C219.311 224.768 220.189 224.142 220.911 223.381V223.387C220.189 224.155 219.311 224.774 218.285 225.2Z" fill="url(#paint33_linear)"></path>
<path d="M328.367 39.5121C328.367 41.0346 328.141 42.5893 327.864 44.1118C327.851 44.1827 327.831 44.2537 327.818 44.3246C323.774 46.1503 318.348 47.2986 314.29 45.9503C313.884 45.8148 313.484 45.6471 313.097 45.46C312.82 45.3246 312.562 45.1826 312.31 45.0278C311.42 44.4924 310.62 43.8473 309.917 43.1312C309.884 43.0989 309.852 43.0667 309.826 43.0344C306.181 38.9767 307.478 32.9578 310.355 27.8615C310.381 27.8486 311.097 27.8034 311.2 27.797C314.187 27.6099 317.31 27.9389 320.161 28.8614C322.69 29.6807 325.09 31.1515 326.625 33.3643C327.947 35.2673 328.373 37.3639 328.367 39.5121Z" fill="#D6362D"></path>
<path d="M327.825 44.3246C327.741 44.3633 327.664 44.402 327.586 44.4343C323.541 46.2664 318.322 47.3244 314.297 45.9503C318.355 47.2986 323.78 46.1503 327.825 44.3246Z" fill="#D6362D"></path>
<path d="M327.825 44.3246C327.812 44.4278 327.715 44.6923 327.599 44.9761L322.483 56.9429L322.413 57.1106L320.935 60.6716C320.755 60.7361 320.568 60.8071 320.387 60.8716C320.239 60.9232 320.097 60.9813 319.948 61.0264C319.942 61.0329 319.942 61.0329 319.935 61.0329C316.684 62.2005 313.349 63.1811 309.949 63.9681C308.117 64.4003 306.259 64.7681 304.395 65.0842C295.886 66.5227 287.106 66.8001 278.423 65.8389C261.005 62.5747 246.729 54.5883 232.82 46.1825C233.007 44.8149 233.162 43.4472 233.297 42.0732C233.891 36.2672 234.168 30.4225 235.026 24.6488C236.046 17.7913 238.02 10.9854 240.529 4.62467C240.555 4.56016 240.581 4.4892 240.606 4.42469C240.632 4.35373 240.658 4.28922 240.69 4.22471C240.826 3.8828 240.955 3.54735 241.09 3.20544C241.226 2.86353 241.361 2.52807 241.49 2.18617C241.555 2.01844 241.626 1.84426 241.69 1.67653C241.755 1.50235 241.819 1.33463 241.884 1.16045C241.948 0.99272 242.006 0.824988 242.071 0.65726C242.097 0.573396 242.129 0.502434 242.161 0.425021C242.174 0.412119 242.174 0.392766 242.181 0.379864C242.193 0.347609 242.213 0.315357 242.226 0.283102C242.239 0.250846 242.245 0.21859 242.258 0.186335L242.264 0.166982C252.87 -0.471674 265.862 0.534689 274.655 6.48258C292.389 18.4816 276.52 21.9587 299.718 26.7519C303.317 27.5002 306.962 27.6937 310.362 27.8614C307.485 32.9578 306.188 38.9767 309.833 43.0344C309.859 43.0666 309.891 43.0989 309.923 43.1311C310.562 43.8279 311.355 44.4665 312.317 45.0278C312.568 45.1826 312.826 45.3245 313.104 45.46H313.11C313.491 45.6471 313.891 45.8148 314.297 45.9503C318.355 47.2985 323.78 46.1502 327.825 44.3246Z" fill="url(#paint34_linear)"></path>
<path d="M272.604 123.608C272.468 124.473 272.32 125.331 272.158 126.176C271.675 128.756 271.036 131.298 270.165 133.775C270.159 133.795 270.152 133.82 270.146 133.84C270.126 133.885 270.126 133.891 270.1 133.969C269.997 134.272 269.888 134.562 269.778 134.84C269.765 134.872 269.752 134.904 269.739 134.93C269.301 136.014 268.843 136.936 268.307 138.001C267.997 138.62 267.546 139.562 267.185 140.142C266.946 140.536 266.727 140.923 266.475 141.297C266.398 141.426 266.307 141.542 266.217 141.665C258.076 152.903 240.677 157.399 221.414 169.585C214.131 174.198 209.409 181.571 206.454 189.571C205.222 192.919 203.822 199.054 205.216 203.434C205.254 203.544 205.293 203.66 205.332 203.769C205.364 203.86 205.396 203.956 205.435 204.04C205.435 204.06 205.441 204.079 205.454 204.098C205.628 204.563 205.841 205.014 206.08 205.427C206.68 206.459 207.48 207.292 208.544 207.588C209.106 207.814 209.893 207.717 210.493 207.724C210.828 207.73 211.163 207.717 211.505 207.698C213.073 207.634 214.699 207.401 216.247 207.427C217.46 207.446 219.085 208.156 220.001 208.93C222.13 210.73 223.072 213.272 223.401 216.039C223.466 216.568 223.298 217.291 223.266 217.826C223.246 218.175 223.195 218.517 223.13 218.858C223.085 219.123 223.027 219.375 222.956 219.633C222.93 219.723 222.904 219.813 222.879 219.897C222.498 221.2 221.846 222.374 220.95 223.335C220.937 223.348 220.924 223.368 220.911 223.387C220.73 223.574 220.537 223.761 220.33 223.935C220.24 224.019 220.15 224.09 220.06 224.168C220.047 224.174 220.034 224.187 220.027 224.193C219.498 224.613 218.924 224.961 218.298 225.213C217.892 225.374 217.453 225.49 216.995 225.568C216.802 225.613 216.602 225.638 216.395 225.664C216.292 225.677 216.182 225.69 216.079 225.703H216.034C215.615 225.742 215.208 225.761 214.815 225.761H189.727C186.533 225.761 184.211 224.561 182.508 222.658C178.186 217.833 177.837 208.492 177.244 202.757C176.631 196.847 176.379 190.312 176.682 184.326C176.695 184.029 176.695 183.726 176.702 183.429C176.721 182.758 176.741 182.094 176.76 181.423C176.799 180.455 176.837 179.481 176.889 178.507C176.953 177.301 177.024 176.088 177.115 174.881C177.218 173.494 177.334 172.114 177.476 170.733C177.502 170.495 177.54 170.25 177.586 170.017C177.94 168.359 178.876 166.83 179.656 165.36C180.695 163.405 181.805 161.489 182.959 159.605C184.669 156.825 186.488 154.115 188.333 151.425C189.023 150.413 189.72 149.406 190.41 148.4C192.552 145.284 194.765 142.22 197.068 139.239C197.242 139.013 197.416 138.788 197.597 138.562C207.467 125.911 219.027 114.77 233.51 107.403C240.193 104.003 247.793 101.52 255.263 99.9909C255.315 99.978 255.366 99.9651 255.418 99.9587C255.45 99.9458 255.489 99.9393 255.528 99.9328C255.979 99.8361 256.437 99.7458 256.895 99.6619C257.437 99.5522 257.979 99.4619 258.521 99.3716C259.037 99.2813 259.559 99.1974 260.076 99.1265C260.998 98.991 261.908 98.8684 262.83 98.7458C263.443 99.5974 264.114 100.404 264.791 101.152C267.178 103.784 269.681 105.726 270.075 106.3C272.055 108.939 272.874 111.958 273.081 115.086C273.274 117.918 273.036 120.789 272.604 123.608Z" fill="url(#paint35_linear)"></path>
<path d="M185.92 225.006C185.611 224.884 185.314 224.735 185.017 224.581C185.308 224.735 185.611 224.877 185.92 225.006Z" fill="url(#paint36_linear)"></path>
<path d="M320.935 60.6716L320.903 60.7554C320.735 61.1812 320.619 61.4651 320.49 61.8779C320.458 61.9811 320.413 62.1102 320.361 62.2521C320.193 62.7166 319.948 63.3488 319.658 64.0261C319.155 65.1744 318.413 66.6388 317.368 68.2838C315.865 70.632 313.716 73.335 310.704 75.9864C310.6 76.0767 310.504 76.1671 310.4 76.2574C309.897 76.6896 309.362 77.1283 308.807 77.554C308.588 77.7218 308.362 77.8959 308.136 78.0637C302.156 82.502 293.454 86.463 280.861 87.8564C274.526 88.4305 268.146 88.5209 261.798 88.1209C261.746 88.1209 261.695 88.1209 261.637 88.1144C261.572 88.1144 261.508 88.108 261.443 88.108C257.779 87.8693 254.134 87.4822 250.515 86.9274C245.625 86.192 240.787 85.1663 236.032 83.8632C231.085 82.502 226.233 80.8376 221.518 78.8765C223.904 75.3671 226.691 70.2579 229.014 63.181C229.962 60.3103 230.833 57.117 231.562 53.5689C232.046 51.2595 232.471 48.8016 232.82 46.1825C246.728 54.5882 261.005 62.5746 278.423 65.8389C287.106 66.8001 295.886 66.5227 304.395 65.0841C306.259 64.768 308.117 64.4003 309.949 63.9681C313.349 63.181 316.684 62.2005 319.935 61.0328C319.942 61.0328 319.942 61.0328 319.948 61.0264C320.096 60.9812 320.238 60.9232 320.387 60.8716C320.567 60.807 320.754 60.7361 320.935 60.6716Z" fill="url(#paint37_linear)"></path>
<path d="M216.395 225.664C216.305 225.684 216.221 225.696 216.137 225.703H216.079C216.182 225.69 216.292 225.677 216.395 225.664Z" fill="#D6362D"></path>
<path d="M224.724 196.699C224.621 199.112 225.246 201.24 225.717 202.944C227.395 209.22 234.407 207.105 239.039 207.485C240.916 207.64 242.935 207.859 244.645 210.949C247.354 215.839 246.193 221.845 242.316 224.097C242.303 224.103 242.297 224.11 242.284 224.116C242.245 224.142 242.2 224.168 242.155 224.193C241.194 224.722 240.065 225.019 238.787 225.019L216.138 225.703C216.221 225.697 216.305 225.684 216.396 225.664H216.402C216.602 225.638 216.802 225.613 216.996 225.567C217.454 225.49 217.892 225.374 218.299 225.213C218.924 224.961 219.499 224.613 220.028 224.193C220.034 224.187 220.047 224.174 220.06 224.168C220.15 224.09 220.24 224.019 220.331 223.935C220.537 223.761 220.731 223.574 220.911 223.387V223.381C220.924 223.368 220.937 223.348 220.95 223.335C221.847 222.374 222.498 221.2 222.879 219.897C222.905 219.813 222.931 219.723 222.956 219.633C223.027 219.374 223.085 219.123 223.131 218.858C223.195 218.516 223.247 218.175 223.266 217.826C223.298 217.291 223.466 216.568 223.401 216.039C223.072 213.272 222.131 210.73 220.002 208.93C219.086 208.156 217.46 207.446 216.247 207.427C214.699 207.401 213.073 207.634 211.506 207.698C211.164 207.717 210.828 207.73 210.493 207.724C209.893 207.717 209.106 207.814 208.545 207.588C207.48 207.292 206.68 206.459 206.08 205.427C205.842 205.014 205.629 204.563 205.455 204.098C205.442 204.079 205.435 204.06 205.435 204.04C205.396 203.956 205.364 203.86 205.332 203.769C205.293 203.66 205.255 203.544 205.216 203.434C203.822 199.054 205.222 192.919 206.454 189.571C209.409 181.571 214.131 174.198 221.415 169.585C240.677 157.399 258.076 152.903 266.217 141.665C266.308 141.542 266.398 141.426 266.475 141.297C266.727 140.923 266.946 140.536 267.185 140.142C267.546 139.562 267.998 138.62 268.307 138.001C268.843 136.936 269.301 136.014 269.74 134.93C269.752 134.904 269.765 134.872 269.778 134.84C269.888 134.562 269.998 134.272 270.101 133.969C270.127 133.891 270.127 133.885 270.146 133.84C270.114 133.988 270.094 134.098 270.043 134.259C267.34 143.265 255.644 158.896 245.135 171.12C238.478 178.855 230.311 183.552 227.466 188.487C225.182 192.448 224.84 194.228 224.724 196.699Z" fill="#D6362D"></path>
<path d="M262.83 98.7458C261.914 98.8619 260.998 98.9909 260.075 99.1264C259.559 99.1974 259.037 99.2812 258.521 99.3715C257.979 99.4619 257.437 99.5522 256.895 99.6619C248.909 101.146 240.677 103.758 233.51 107.403C219.027 114.77 207.467 125.911 197.597 138.562C197.416 138.788 197.242 139.013 197.068 139.239C196.545 139.897 196.036 140.562 195.526 141.226C194.849 142.123 194.178 143.026 193.513 143.936C192.849 144.845 192.191 145.768 191.546 146.69C190.894 147.613 190.255 148.548 189.623 149.483C189.191 150.129 188.759 150.774 188.333 151.425C186.488 154.115 184.669 156.825 182.959 159.605C181.805 161.489 180.695 163.405 179.656 165.36C178.876 166.83 177.94 168.359 177.586 170.017C177.56 170.069 177.547 170.12 177.54 170.179C177.398 170.12 177.263 170.062 177.121 170.004C175.412 169.288 173.708 168.553 172.012 167.811C169.728 166.811 167.909 165.992 167.29 165.624C167.012 165.469 166.741 165.314 166.464 165.166C165.651 164.714 164.832 164.308 163.922 164.063C162.98 163.811 162.006 163.74 161.032 163.805C160.903 163.811 160.774 163.818 160.645 163.831C160.387 163.857 160.135 163.889 159.877 163.927C159.948 163.844 160.026 163.753 160.097 163.669C160.193 163.553 160.284 163.444 160.374 163.327C161.116 162.457 161.832 161.56 162.516 160.637C162.858 160.179 163.193 159.715 163.522 159.244C163.664 159.044 163.8 158.844 163.929 158.644C164.761 157.438 165.548 156.199 166.296 154.935C166.554 154.502 166.806 154.064 167.051 153.625C167.425 152.974 167.793 152.309 168.141 151.638C168.502 150.974 168.844 150.303 169.18 149.625C169.412 149.174 169.631 148.722 169.844 148.271C170.07 147.819 170.283 147.361 170.489 146.91C170.915 146 171.328 145.084 171.734 144.168C171.967 143.639 172.192 143.116 172.418 142.587C172.87 141.536 173.308 140.491 173.734 139.446C177.179 131.027 180.03 122.318 183.404 113.854C184.024 112.409 184.604 110.964 185.191 109.526C187.352 104.487 189.83 99.5973 192.687 94.9139C196.448 94.501 200.429 93.5978 204.48 91.9786C204.506 91.9657 204.538 91.9593 204.57 91.9399C204.577 91.9335 204.583 91.9335 204.59 91.9335C211.105 89.295 216.847 85.3405 220.975 79.6442C221.163 79.399 221.343 79.141 221.517 78.8829C226.233 80.8441 231.084 82.502 236.032 83.8632C240.787 85.1663 245.625 86.192 250.515 86.9274C254.134 87.4822 257.779 87.8693 261.443 88.108C261.508 88.108 261.572 88.1144 261.637 88.1144C259.521 90.9206 260.25 94.1784 261.585 96.7911C261.604 96.8169 261.617 96.8492 261.637 96.875C261.991 97.5136 262.398 98.1394 262.83 98.7458Z" fill="url(#paint38_linear)"></path>
<path d="M192.681 94.9139C189.83 99.5974 187.353 104.487 185.192 109.526C186.269 106.881 187.488 104.294 188.804 101.759C189.249 100.901 191.707 95.0494 192.681 94.9139Z" fill="url(#paint39_linear)"></path>
<path d="M173.876 95.6686C173.863 95.6815 173.851 95.688 173.838 95.6944C171.96 96.6685 170.083 97.9523 168.838 98.7006C168.799 98.7264 168.761 98.7522 168.722 98.778C168.696 98.7974 168.664 98.8103 168.638 98.8297C158.845 106.184 150.311 114.474 141.55 123.034C129.493 134.82 116.875 151.541 99.16 154.315C95.7345 154.844 92.4251 155.077 89.0576 155.941C92.8702 152.812 100.05 144.374 105.147 131.524C105.366 130.975 105.585 130.44 105.805 129.911C112.559 113.609 119.397 108.906 125.564 107.152C126.138 106.99 126.706 106.848 127.267 106.732C127.274 106.732 127.28 106.726 127.293 106.726C131.777 105.771 136.312 105.094 140.789 104.1C144.479 103.281 148.175 102.494 151.852 101.636C159.265 99.9199 166.625 97.9652 173.876 95.6686Z" fill="url(#paint40_linear)"></path>
<path d="M172.012 167.811C165.471 173.475 156.097 183.836 146.176 186.809C139.821 188.713 137.215 188.693 129.429 189.725C126.693 190.08 118.733 189.029 114.804 192.17C111.695 194.654 108.798 198.467 108.611 202.595C108.372 207.711 113.559 208.124 117.475 208.227C123.674 208.395 125.216 217.581 122.378 222.729C122.332 222.826 122.274 222.923 122.216 223.019C121.113 224.871 119.397 226.129 117.094 226.129H100.954C102.347 225.632 103.463 224.664 104.282 223.432C104.373 223.297 104.463 223.155 104.54 223.013C107.701 217.678 106.005 208.111 99.1279 207.93C98.844 207.924 98.5602 207.924 98.2699 207.924C98.2053 207.924 98.1344 207.924 98.0699 207.93C97.4506 207.93 96.799 207.963 96.1152 208.021C95.812 208.046 95.5282 208.059 95.2572 208.066C89.2706 207.84 91.522 201.363 93.2122 196.209C94.7347 191.209 99.8891 186.558 104.121 183.765C108.785 180.694 114.256 178.959 119.849 178.907C127.28 178.842 134.589 177.397 141.337 174.217C147.679 171.23 152.691 165.031 159.878 163.928C160.136 163.889 160.387 163.857 160.645 163.831C160.774 163.818 160.903 163.811 161.032 163.805C162.006 163.74 162.981 163.811 163.922 164.063C164.832 164.308 165.651 164.715 166.464 165.166C166.742 165.314 167.013 165.469 167.29 165.624C167.909 165.992 169.728 166.811 172.012 167.811Z" fill="#D6362D"></path>
<path d="M59.1376 149.471C74.7621 144.265 88.2126 135.582 99.0633 122.563C103.644 117.177 108.895 112.287 114.914 108.945C113.23 109.28 107.85 110.306 102.998 112.829C102.682 112.996 100.579 114.274 100.289 114.486C98.3343 115.925 91.2962 121.215 78.665 127.95C75.1685 129.814 71.4204 131.698 67.4401 133.504C67.4401 133.504 50.5318 143.11 27.3467 137.517C23.6954 136.627 20.2376 139.723 21.1472 143.026C21.1988 143.2 21.2504 143.387 21.3085 143.568C32.5785 150.593 45.371 154.141 59.1376 149.471Z" fill="url(#paint41_linear)"></path>
<path d="M115.12 108.9C115.062 108.913 114.991 108.926 114.914 108.939C108.888 112.287 103.644 117.17 99.0634 122.557C88.2127 135.575 74.7622 144.258 59.1377 149.464C45.3711 154.135 32.5786 150.587 21.3086 143.555C21.4505 144.045 21.6053 144.542 21.7924 145.058C22.6633 147.464 23.7471 149.761 25.1728 151.896C26.4049 153.741 27.9016 155.49 29.5789 156.98C31.3981 158.592 33.4947 159.844 35.3526 161.405C35.3526 161.405 52.0673 175.443 74.0913 164.527C74.0913 164.527 75.0396 164.089 76.6072 163.308C79.6263 159.754 83.8518 157.386 88.4578 156.096C88.903 155.973 89.3739 155.793 89.8706 155.541C89.8642 155.541 89.8513 155.548 89.8513 155.548C93.4832 152.825 99.7924 145.026 105.14 131.524C105.36 130.975 105.573 130.434 105.798 129.905C112.553 113.603 119.391 108.906 125.564 107.152C126.132 106.984 126.7 106.848 127.261 106.726C124.274 107.39 119.146 107.952 115.12 108.9Z" fill="url(#paint42_linear)"></path>
<path d="M360.487 82.9408C360.19 84.9599 359.912 86.9727 359.616 88.9854C359.377 92.0626 359.254 94.4108 359.254 94.4108C355.803 93.1141 352.836 93.3012 349.281 92.8174C347.559 92.6561 345.823 92.5271 344.088 92.398C338.888 92.0174 333.663 91.6497 328.567 90.4756C326.889 90.1466 325.244 89.7595 323.644 89.3015C318.819 87.9339 314.336 85.9212 310.446 82.8053C309.659 81.9666 309.33 80.9603 309.278 79.8378C309.271 79.683 309.271 79.5217 309.271 79.3604C309.594 79.6314 309.942 79.87 310.336 80.0636C310.691 80.7345 311.175 81.3151 311.845 81.7731C316.826 84.2761 322.18 85.4115 327.722 85.7599C329.573 85.8695 331.444 85.9018 333.334 85.8631C339.121 85.9276 344.849 85.0696 350.558 84.2374C352.461 83.96 354.364 83.6826 356.261 83.4504C357.751 83.3278 359.125 83.1214 360.487 82.9408Z" fill="#A0C01B"></path>
<path d="M367.415 82.7988C364.893 82.4247 362.719 82.644 360.487 82.9407C359.132 83.1214 357.751 83.3278 356.261 83.4504C354.358 83.6891 352.455 83.96 350.558 84.2374C344.849 85.0696 339.121 85.9211 333.334 85.8631C331.444 85.9018 329.573 85.8695 327.722 85.7599C322.18 85.4115 316.826 84.2761 311.846 81.7731C311.181 81.3151 310.691 80.7409 310.336 80.0636C310.626 80.2055 310.942 80.3281 311.278 80.4184C317.471 81.2635 323.599 80.5797 329.676 79.012C331.702 78.4895 333.728 77.8702 335.74 77.1799C338.721 76.2574 341.604 75.122 344.449 73.877C347.572 72.5158 350.636 71.0256 353.7 69.5419C355.648 68.6 357.603 67.6582 359.571 66.755C361.699 65.8841 363.538 64.9229 365.448 64.0843C365.654 68.3162 366.106 72.5158 366.435 76.7219C366.957 80.1797 367.415 82.7988 367.415 82.7988Z" fill="#A0C01B"></path>
<path d="M368.241 56.3236C365.892 50.7241 363.318 43.4602 361.403 37.6284C361.403 37.9832 357.848 39.6798 357.454 39.9379C352.539 43.1118 347.178 45.7051 342.024 48.4597C336.843 51.2208 331.566 53.9432 325.993 55.8269C324.818 56.201 323.651 56.5687 322.483 56.9429L322.412 57.1106L320.935 60.6716L320.903 60.7555C320.735 61.1813 320.619 61.4651 320.49 61.878C320.458 61.9812 320.412 62.1102 320.361 62.2521C320.193 62.7166 319.948 63.3488 319.658 64.0262C319.154 65.1745 318.413 66.6389 317.367 68.2839C315.864 70.6321 313.716 73.3351 310.704 75.9865C310.6 76.0768 310.504 76.1671 310.4 76.2574C309.897 76.6896 309.362 77.1283 308.807 77.5541C308.588 77.7218 308.362 77.896 308.136 78.0637C308.471 78.5476 308.846 78.9927 309.278 79.3604C309.6 79.6313 309.949 79.87 310.336 80.0636C310.626 80.2055 310.942 80.3216 311.278 80.4184C317.471 81.2699 323.599 80.5796 329.676 79.012C331.702 78.496 333.721 77.8766 335.74 77.1799C338.721 76.2574 341.604 75.122 344.449 73.8834C345.049 73.6189 345.649 73.3544 346.242 73.077C346.739 72.8577 347.236 72.6255 347.733 72.3932C347.804 72.361 347.875 72.3287 347.946 72.2965C348.907 71.8513 349.868 71.3933 350.829 70.9288C351.784 70.4708 352.745 70.0128 353.7 69.5483C355.655 68.6 357.603 67.6581 359.57 66.755C361.699 65.8841 363.538 64.9229 365.447 64.0843C367.26 63.2908 369.124 62.6134 371.337 62.2263C371.337 62.2263 369.97 59.6911 368.241 56.3236ZM348.629 63.4972C347.152 65.8325 344.107 68.0194 340.256 69.2322C334.024 71.1933 328.031 69.8902 326.857 66.3228C326.644 65.6583 326.605 64.9745 326.728 64.2713C327.27 61.1813 330.934 57.8977 336.011 56.2978C342.236 54.3367 348.236 55.6398 349.404 59.2072C349.855 60.5684 349.533 62.0651 348.629 63.4972Z" fill="#A0C01B"></path>
<path d="M348.623 63.4972C347.146 65.8325 344.107 68.013 340.25 69.2322C334.018 71.1934 328.025 69.8902 326.851 66.3228C326.638 65.6648 326.593 64.9745 326.722 64.2778C327.264 61.1813 330.928 57.9042 336.011 56.3043C342.237 54.3432 348.23 55.6463 349.404 59.2137C349.855 60.5684 349.533 62.0651 348.623 63.4972Z" fill="white"></path>
<path d="M192.681 94.914C189.83 99.5975 187.353 104.487 185.192 109.526C184.579 110.958 183.985 112.403 183.405 113.854C180.031 122.318 177.179 131.027 173.735 139.446C173.309 140.491 172.87 141.536 172.419 142.587C172.193 143.116 171.967 143.639 171.735 144.168C171.328 145.084 170.915 146 170.49 146.91C170.277 147.361 170.064 147.819 169.845 148.271C169.625 148.722 169.406 149.174 169.18 149.626C168.838 150.303 168.496 150.974 168.141 151.638C168.141 151.645 168.141 151.645 168.141 151.645C167.78 152.309 167.419 152.974 167.051 153.625C166.806 154.064 166.555 154.503 166.296 154.935C165.548 156.199 164.761 157.438 163.929 158.644C163.8 158.844 163.664 159.044 163.523 159.244C163.194 159.715 162.858 160.18 162.516 160.638C161.832 161.56 161.116 162.457 160.374 163.328C160.284 163.444 160.194 163.553 160.097 163.67C160.026 163.753 159.949 163.844 159.878 163.928C152.691 165.031 147.679 171.23 141.337 174.217C134.589 177.397 127.28 178.842 119.849 178.907C114.256 178.959 108.785 180.694 104.121 183.765C99.8891 186.558 94.7347 191.209 93.2123 196.209C91.5221 201.363 89.2707 207.84 95.2573 208.066C95.5282 208.059 95.812 208.047 96.1152 208.021C96.7991 207.963 97.4506 207.93 98.0699 207.93C98.1344 207.924 98.2054 207.924 98.2699 207.924C98.5602 207.924 98.8441 207.924 99.1279 207.93C106.005 208.111 107.701 217.678 104.54 223.013C104.463 223.155 104.373 223.297 104.282 223.432C103.463 224.664 102.347 225.632 100.954 226.129C100.928 226.142 100.895 226.148 100.87 226.161C100.231 226.38 99.5343 226.503 98.7731 226.509C98.7473 226.516 98.7279 226.516 98.7021 226.516H74.8138C72.872 226.516 71.027 225.942 69.4723 224.935C69.453 224.935 69.4336 224.942 69.4207 224.942C69.053 224.703 68.6982 224.439 68.3627 224.155H68.3563C67.0273 223.013 65.9952 221.523 65.4081 219.787C62.8922 212.324 62.0149 188.642 74.5557 166.282C75.1557 165.211 75.846 164.224 76.6201 163.315C79.6392 159.76 83.8646 157.393 88.4707 156.102C88.6642 156.051 88.8642 155.999 89.0578 155.941C92.4252 155.077 95.7346 154.844 99.1601 154.316C116.875 151.542 129.493 134.82 141.55 123.034C150.311 114.474 158.845 106.184 168.638 98.8298C168.664 98.8105 168.696 98.7975 168.722 98.7782C168.761 98.7524 168.799 98.7266 168.838 98.7008C170.083 97.9525 171.961 96.6687 173.838 95.6946C173.851 95.6881 173.864 95.6817 173.876 95.6688H173.883C174.896 95.3462 175.921 95.0172 176.954 94.6753C176.967 94.6689 176.979 94.6689 176.992 94.6624C177.212 94.5721 177.431 94.4818 177.657 94.3915C177.702 94.3721 177.754 94.3528 177.799 94.3334C181.863 95.0882 187.011 95.5591 192.681 94.914Z" fill="url(#paint43_linear)"></path>
<path opacity="0.5" d="M360.487 82.9408C359.132 83.1214 357.751 83.3278 356.261 83.4504C354.358 83.6891 352.455 83.96 350.558 84.2374C344.849 85.0696 339.121 85.9212 333.334 85.8631C331.444 85.9018 329.573 85.8695 327.722 85.7599C322.18 85.4115 316.826 84.2761 311.845 81.7731C311.181 81.3151 310.691 80.7409 310.336 80.0636C309.949 79.87 309.594 79.6314 309.271 79.3604C309.265 79.5217 309.265 79.683 309.278 79.8378C309.323 80.9603 309.652 81.9731 310.446 82.8053C314.336 85.9276 318.819 87.9339 323.644 89.3015C325.251 89.7595 326.896 90.1402 328.567 90.4756C333.457 91.6046 338.475 91.9852 343.475 92.3529C349.01 89.9466 354.539 87.5146 360.151 85.289C360.261 84.5084 360.37 83.7278 360.487 82.9408Z" fill="url(#paint44_linear)"></path>
<path opacity="0.5" d="M359.571 66.755C357.603 67.6581 355.655 68.6 353.7 69.5418C350.636 71.0256 347.572 72.5158 344.449 73.8769C341.604 75.1155 338.714 76.2574 335.74 77.1799C333.721 77.8702 331.702 78.4895 329.676 79.012C323.599 80.5796 317.471 81.2634 311.278 80.4183C310.942 80.3216 310.633 80.2054 310.336 80.0635C310.691 80.7344 311.175 81.315 311.846 81.7731C316.826 84.2761 322.18 85.4115 327.722 85.7598C329.573 85.8695 331.444 85.9017 333.334 85.863C334.424 85.8759 335.508 85.8566 336.592 85.805C346.61 80.8054 356.184 74.8575 365.802 69.2322C365.66 67.5162 365.538 65.8002 365.454 64.0778C363.538 64.9228 361.693 65.8841 359.571 66.755Z" fill="url(#paint45_linear)"></path>
<path opacity="0.5" d="M347.946 72.2964C347.875 72.3287 347.804 72.3609 347.733 72.3932C347.236 72.6254 346.739 72.8577 346.242 73.077C345.649 73.3544 345.049 73.6189 344.449 73.8834C341.604 75.122 338.721 76.2574 335.74 77.1799C333.721 77.8766 331.702 78.4959 329.676 79.012C323.599 80.5796 317.471 81.2698 311.278 80.4183C310.942 80.3215 310.626 80.2054 310.336 80.0635C309.949 79.87 309.6 79.6313 309.278 79.3603C308.846 78.9926 308.471 78.5475 308.136 78.0637C308.362 77.8959 308.588 77.7218 308.807 77.554C309.362 77.1283 309.897 76.6896 310.4 76.2574C310.504 76.167 310.6 76.0767 310.704 75.9864C313.716 73.335 315.864 70.632 317.367 68.2838C318.413 66.6388 319.154 65.1744 319.658 64.0261C319.948 63.3488 320.193 62.7166 320.361 62.2521C320.399 63.0133 320.528 63.781 320.754 64.5358C321.845 68.5354 325.489 71.0836 329.128 71.8126C335.398 72.5996 341.675 72.4448 347.946 72.2964Z" fill="url(#paint46_linear)"></path>
<path d="M240.555 0.19928C222.93 12.1273 216.692 34.9835 209.389 54.0464C203.009 71.045 190.301 83.8181 174.895 93.5979C174.425 93.2689 174.121 92.6819 174.141 92.0239C174.16 91.5207 174.186 91.0175 174.225 90.5143C174.405 88.0307 174.825 85.5534 175.186 83.0956C175.56 80.5797 175.973 78.0702 176.521 75.593C177.128 72.8706 177.895 70.1999 178.779 67.5743C178.992 66.9356 179.173 66.2647 179.431 65.639C179.527 65.4132 179.618 65.1939 179.702 64.9616C179.869 64.5165 180.037 64.0649 180.198 63.6198C180.45 62.9489 180.701 62.278 180.953 61.6071C181.269 60.7684 181.579 59.9362 181.895 59.104C182.25 58.1686 182.605 57.2268 182.966 56.2914C183.34 55.3108 183.721 54.3303 184.101 53.3497C184.475 52.3885 184.849 51.4273 185.237 50.4661C185.656 49.4016 186.095 48.3243 186.533 47.2599C188.927 41.4797 190.585 36.4027 193.036 30.6354C195.416 25.0295 198.81 18.1268 203.235 14.1013C207.202 10.4887 212.163 8.14056 216.944 6.20523C219.382 5.21822 221.866 4.32152 224.337 3.43127C226.356 2.70875 228.401 2.083 230.478 1.61852C231.723 1.34112 232.975 1.12824 234.232 0.954059C237.303 0.515386 239.309 0.302497 240.555 0.19928Z" fill="url(#paint47_linear)"></path>
<path d="M242.264 0.166946L242.258 0.186298C242.245 0.218554 242.238 0.25081 242.226 0.283066C242.213 0.315321 242.193 0.347572 242.18 0.379828C242.161 0.444339 242.135 0.508851 242.109 0.573362C242.096 0.599166 242.084 0.63142 242.077 0.657224C241.955 0.99268 241.819 1.32814 241.69 1.6765C241.626 1.84422 241.555 2.0184 241.49 2.18613C241.361 2.52804 241.226 2.86349 241.09 3.2054C240.955 3.54731 240.826 3.88277 240.69 4.22467C240.658 4.28918 240.632 4.35369 240.606 4.42465C240.58 4.48917 240.555 4.56013 240.529 4.62464C238.019 10.9854 236.045 17.7913 235.026 24.6488C234.168 30.4225 233.891 36.2672 233.297 42.0731C233.162 43.4472 233.007 44.8148 232.82 46.1825C232.471 48.8016 232.046 51.2595 231.562 53.569C230.833 57.117 229.962 60.3103 229.014 63.181C226.691 70.2579 223.904 75.3671 221.518 78.883C221.343 79.141 221.163 79.3926 220.976 79.6442C216.847 85.3405 211.106 89.295 204.59 91.9335C204.583 91.9335 204.577 91.9335 204.571 91.94C204.538 91.9593 204.506 91.9658 204.48 91.9787C200.429 93.5979 196.449 94.501 192.688 94.9139H192.681C187.011 95.559 181.863 95.0881 177.799 94.3333C176.966 94.1785 176.179 94.0172 175.444 93.843C175.244 93.7978 175.063 93.714 174.902 93.5979C190.307 83.818 203.016 71.0449 209.396 54.0463C216.699 34.9834 222.937 12.1272 240.561 0.199198C241.819 0.14759 242.038 0.173397 242.264 0.166946Z" fill="url(#paint48_linear)"></path>
<path opacity="0.15" d="M267.152 226.761C267.152 229.09 217.337 230.98 155.891 230.98C94.4378 230.98 44.6226 229.09 44.6226 226.761C44.6226 225.774 53.4928 224.871 68.3561 224.155H68.3625C68.698 224.439 69.0528 224.703 69.4205 224.942C69.4334 224.942 69.4527 224.935 69.4721 224.935C71.0268 225.942 72.8718 226.516 74.8136 226.516H98.7019C98.7277 226.516 98.7471 226.516 98.7729 226.509C99.5341 226.503 100.231 226.38 100.869 226.161C100.895 226.148 100.928 226.142 100.953 226.129H117.094C119.397 226.129 121.113 224.871 122.216 223.019C122.274 222.923 122.332 222.826 122.377 222.729C132.951 222.607 144.208 222.536 155.891 222.536C165.064 222.536 173.98 222.581 182.508 222.658C184.211 224.561 186.533 225.761 189.727 225.761H214.815C215.208 225.761 215.615 225.742 216.034 225.703H216.137L238.787 225.019C240.064 225.019 241.193 224.722 242.154 224.193C242.2 224.168 242.245 224.142 242.283 224.116C242.296 224.11 242.303 224.103 242.316 224.097C257.85 224.826 267.152 225.755 267.152 226.761Z" fill="#020203"></path>
<defs>
<linearGradient id="paint0_linear" x1="0.437487" y1="215.05" x2="114.18" y2="342.157" gradientUnits="userSpaceOnUse">
<stop offset="0.0644" stop-color="#E40040"></stop>
<stop offset="0.1277" stop-color="#E6163B"></stop>
<stop offset="0.3757" stop-color="#EF6826"></stop>
<stop offset="0.5956" stop-color="#F6A916"></stop>
<stop offset="0.7793" stop-color="#FBD70B"></stop>
<stop offset="0.9196" stop-color="#FEF404"></stop>
<stop offset="1" stop-color="#FFFF01"></stop>
</linearGradient>
<linearGradient id="paint1_linear" x1="208.76" y1="207.752" x2="208.15" y2="207.354" gradientUnits="userSpaceOnUse">
<stop offset="0.0364" stop-color="#E50742"></stop>
<stop offset="0.1063" stop-color="#E61E43"></stop>
<stop offset="0.218" stop-color="#E83D44"></stop>
<stop offset="0.3575" stop-color="#EC6446"></stop>
<stop offset="0.5183" stop-color="#F39241"></stop>
<stop offset="0.679" stop-color="#FCBF30"></stop>
<stop offset="0.7473" stop-color="#F9D021"></stop>
<stop offset="0.8533" stop-color="#F4E600"></stop>
</linearGradient>
<linearGradient id="paint2_linear" x1="215.446" y1="211.167" x2="197.637" y2="199.579" gradientUnits="userSpaceOnUse">
<stop offset="0.0364" stop-color="#E50742"></stop>
<stop offset="0.1063" stop-color="#E61E43"></stop>
<stop offset="0.218" stop-color="#E83D44"></stop>
<stop offset="0.3575" stop-color="#EC6446"></stop>
<stop offset="0.5183" stop-color="#F39241"></stop>
<stop offset="0.679" stop-color="#FCBF30"></stop>
<stop offset="0.7473" stop-color="#F9D021"></stop>
<stop offset="0.8533" stop-color="#F4E600"></stop>
</linearGradient>
<linearGradient id="paint3_linear" x1="212.138" y1="208.966" x2="208.18" y2="206.39" gradientUnits="userSpaceOnUse">
<stop offset="0.0364" stop-color="#E50742"></stop>
<stop offset="0.1063" stop-color="#E61E43"></stop>
<stop offset="0.218" stop-color="#E83D44"></stop>
<stop offset="0.3575" stop-color="#EC6446"></stop>
<stop offset="0.5183" stop-color="#F39241"></stop>
<stop offset="0.679" stop-color="#FCBF30"></stop>
<stop offset="0.7473" stop-color="#F9D021"></stop>
<stop offset="0.8533" stop-color="#F4E600"></stop>
</linearGradient>
<linearGradient id="paint4_linear" x1="209.944" y1="208.075" x2="208.776" y2="207.315" gradientUnits="userSpaceOnUse">
<stop offset="0.0364" stop-color="#E50742"></stop>
<stop offset="0.1063" stop-color="#E61E43"></stop>
<stop offset="0.218" stop-color="#E83D44"></stop>
<stop offset="0.3575" stop-color="#EC6446"></stop>
<stop offset="0.5183" stop-color="#F39241"></stop>
<stop offset="0.679" stop-color="#FCBF30"></stop>
<stop offset="0.7473" stop-color="#F9D021"></stop>
<stop offset="0.8533" stop-color="#F4E600"></stop>
</linearGradient>
<linearGradient id="paint5_linear" x1="212.3" y1="208.223" x2="210.649" y2="207.145" gradientUnits="userSpaceOnUse">
<stop offset="0.0364" stop-color="#E50742"></stop>
<stop offset="0.1063" stop-color="#E61E43"></stop>
<stop offset="0.218" stop-color="#E83D44"></stop>
<stop offset="0.3575" stop-color="#EC6446"></stop>
<stop offset="0.5183" stop-color="#F39241"></stop>
<stop offset="0.679" stop-color="#FCBF30"></stop>
<stop offset="0.7473" stop-color="#F9D021"></stop>
<stop offset="0.8533" stop-color="#F4E600"></stop>
</linearGradient>
<linearGradient id="paint6_linear" x1="216.741" y1="210.065" x2="209.141" y2="205.119" gradientUnits="userSpaceOnUse">
<stop offset="0.0364" stop-color="#E50742"></stop>
<stop offset="0.1063" stop-color="#E61E43"></stop>
<stop offset="0.218" stop-color="#E83D44"></stop>
<stop offset="0.3575" stop-color="#EC6446"></stop>
<stop offset="0.5183" stop-color="#F39241"></stop>
<stop offset="0.679" stop-color="#FCBF30"></stop>
<stop offset="0.7473" stop-color="#F9D021"></stop>
<stop offset="0.8533" stop-color="#F4E600"></stop>
</linearGradient>
<linearGradient id="paint7_linear" x1="219.217" y1="208.606" x2="218.003" y2="207.816" gradientUnits="userSpaceOnUse">
<stop offset="0.0364" stop-color="#E50742"></stop>
<stop offset="0.1063" stop-color="#E61E43"></stop>
<stop offset="0.218" stop-color="#E83D44"></stop>
<stop offset="0.3575" stop-color="#EC6446"></stop>
<stop offset="0.5183" stop-color="#F39241"></stop>
<stop offset="0.679" stop-color="#FCBF30"></stop>
<stop offset="0.7473" stop-color="#F9D021"></stop>
<stop offset="0.8533" stop-color="#F4E600"></stop>
</linearGradient>
<linearGradient id="paint8_linear" x1="219.685" y1="208.798" x2="219.066" y2="208.395" gradientUnits="userSpaceOnUse">
<stop offset="0.0364" stop-color="#E50742"></stop>
<stop offset="0.1063" stop-color="#E61E43"></stop>
<stop offset="0.218" stop-color="#E83D44"></stop>
<stop offset="0.3575" stop-color="#EC6446"></stop>
<stop offset="0.5183" stop-color="#F39241"></stop>
<stop offset="0.679" stop-color="#FCBF30"></stop>
<stop offset="0.7473" stop-color="#F9D021"></stop>
<stop offset="0.8533" stop-color="#F4E600"></stop>
</linearGradient>
<linearGradient id="paint9_linear" x1="221.748" y1="225.691" x2="217.333" y2="222.819" gradientUnits="userSpaceOnUse">
<stop offset="0.0364" stop-color="#E50742"></stop>
<stop offset="0.1063" stop-color="#E61E43"></stop>
<stop offset="0.218" stop-color="#E83D44"></stop>
<stop offset="0.3575" stop-color="#EC6446"></stop>
<stop offset="0.5183" stop-color="#F39241"></stop>
<stop offset="0.679" stop-color="#FCBF30"></stop>
<stop offset="0.7473" stop-color="#F9D021"></stop>
<stop offset="0.8533" stop-color="#F4E600"></stop>
</linearGradient>
<linearGradient id="paint10_linear" x1="176.552" y1="69.4573" x2="389.021" y2="-9.50061" gradientUnits="userSpaceOnUse">
<stop stop-color="#E50742"></stop>
<stop offset="0.0282" stop-color="#E62243"></stop>
<stop offset="0.2192" stop-color="#ED6E47"></stop>
<stop offset="0.3915" stop-color="#F59C42"></stop>
<stop offset="0.539" stop-color="#FBBA38"></stop>
<stop offset="0.656" stop-color="#FECB2D"></stop>
<stop offset="0.728" stop-color="#FFD128"></stop>
</linearGradient>
<linearGradient id="paint11_linear" x1="373.642" y1="302.98" x2="120.29" y2="64.2675" gradientUnits="userSpaceOnUse">
<stop offset="0.321" stop-color="#E50742"></stop>
<stop offset="0.36" stop-color="#E61E43"></stop>
<stop offset="0.4222" stop-color="#E83D44"></stop>
<stop offset="0.4999" stop-color="#EC6446"></stop>
<stop offset="0.5895" stop-color="#F39241"></stop>
<stop offset="0.679" stop-color="#FCBF30"></stop>
<stop offset="0.7473" stop-color="#F9D021"></stop>
<stop offset="0.8533" stop-color="#F4E600"></stop>
</linearGradient>
<linearGradient id="paint12_linear" x1="186.542" y1="225.669" x2="184.166" y2="223.735" gradientUnits="userSpaceOnUse">
<stop offset="0.0364" stop-color="#E50742"></stop>
<stop offset="0.1063" stop-color="#E61E43"></stop>
<stop offset="0.218" stop-color="#E83D44"></stop>
<stop offset="0.3575" stop-color="#EC6446"></stop>
<stop offset="0.5183" stop-color="#F39241"></stop>
<stop offset="0.679" stop-color="#FCBF30"></stop>
<stop offset="0.7473" stop-color="#F9D021"></stop>
<stop offset="0.8533" stop-color="#F4E600"></stop>
</linearGradient>
<linearGradient id="paint13_linear" x1="165.407" y1="93.4256" x2="475.622" y2="5.59678" gradientUnits="userSpaceOnUse">
<stop stop-color="#E50742"></stop>
<stop offset="0.1591" stop-color="#EA4D46"></stop>
<stop offset="0.3744" stop-color="#F08246"></stop>
<stop offset="0.5738" stop-color="#F7A73F"></stop>
<stop offset="0.7509" stop-color="#FCBF35"></stop>
<stop offset="0.8989" stop-color="#FFCC2C"></stop>
<stop offset="1" stop-color="#FFD128"></stop>
</linearGradient>
<linearGradient id="paint14_linear" x1="24.786" y1="184.936" x2="480.818" y2="27.2949" gradientUnits="userSpaceOnUse">
<stop offset="0.1478" stop-color="#E50742"></stop>
<stop offset="0.3448" stop-color="#EA5546"></stop>
<stop offset="0.6635" stop-color="#F59D41"></stop>
<stop offset="0.8895" stop-color="#FDC332"></stop>
<stop offset="1" stop-color="#FFD128"></stop>
</linearGradient>
<linearGradient id="paint15_linear" x1="183.686" y1="103.537" x2="194.182" y2="100.902" gradientUnits="userSpaceOnUse">
<stop offset="0.0779" stop-color="#E50742"></stop>
<stop offset="0.291" stop-color="#EA5546"></stop>
<stop offset="0.6358" stop-color="#F59D41"></stop>
<stop offset="0.8805" stop-color="#FDC332"></stop>
<stop offset="1" stop-color="#FFD128"></stop>
</linearGradient>
<linearGradient id="paint16_linear" x1="74.3027" y1="211.671" x2="195.912" y2="25.8802" gradientUnits="userSpaceOnUse">
<stop offset="0.1431" stop-color="#E50742"></stop>
<stop offset="0.3526" stop-color="#EE7545"></stop>
<stop offset="0.5841" stop-color="#FCBF30"></stop>
<stop offset="0.6926" stop-color="#F9D021"></stop>
<stop offset="0.8611" stop-color="#F4E600"></stop>
</linearGradient>
<linearGradient id="paint17_linear" x1="64.2849" y1="204.809" x2="69.9663" y2="82.0943" gradientUnits="userSpaceOnUse">
<stop stop-color="#E50742"></stop>
<stop offset="0.0955" stop-color="#E62943"></stop>
<stop offset="0.2799" stop-color="#E75646"></stop>
<stop offset="0.5347" stop-color="#EB8E43"></stop>
<stop offset="0.8468" stop-color="#F1CB27"></stop>
<stop offset="1" stop-color="#F4E600"></stop>
</linearGradient>
<linearGradient id="paint18_linear" x1="50.7829" y1="188.942" x2="109.392" y2="29.8593" gradientUnits="userSpaceOnUse">
<stop stop-color="#E50742"></stop>
<stop offset="0.0966" stop-color="#E62A43"></stop>
<stop offset="0.2845" stop-color="#E85846"></stop>
<stop offset="0.5451" stop-color="#EC9143"></stop>
<stop offset="0.8649" stop-color="#F2CF23"></stop>
<stop offset="1" stop-color="#F4E600"></stop>
</linearGradient>
<linearGradient id="paint19_linear" x1="258.736" y1="281.936" x2="35.7867" y2="69.1207" gradientUnits="userSpaceOnUse">
<stop offset="0.321" stop-color="#E50742"></stop>
<stop offset="0.36" stop-color="#E61E43"></stop>
<stop offset="0.4222" stop-color="#E83D44"></stop>
<stop offset="0.4999" stop-color="#EC6446"></stop>
<stop offset="0.5895" stop-color="#F39241"></stop>
<stop offset="0.679" stop-color="#FCBF30"></stop>
<stop offset="0.7473" stop-color="#F9D021"></stop>
<stop offset="0.8533" stop-color="#F4E600"></stop>
</linearGradient>
<linearGradient id="paint20_linear" x1="354.625" y1="127.54" x2="329.368" y2="69.0819" gradientUnits="userSpaceOnUse">
<stop stop-color="#B6C17A"></stop>
<stop offset="0.5225" stop-color="#93AA50"></stop>
<stop offset="1" stop-color="#68823E"></stop>
</linearGradient>
<linearGradient id="paint21_linear" x1="360.719" y1="124.907" x2="335.462" y2="66.4492" gradientUnits="userSpaceOnUse">
<stop stop-color="#B6C17A"></stop>
<stop offset="0.5225" stop-color="#93AA50"></stop>
<stop offset="1" stop-color="#68823E"></stop>
</linearGradient>
<linearGradient id="paint22_linear" x1="348.905" y1="123.475" x2="326.492" y2="71.6003" gradientUnits="userSpaceOnUse">
<stop stop-color="#B6C17A"></stop>
<stop offset="0.5225" stop-color="#93AA50"></stop>
<stop offset="1" stop-color="#68823E"></stop>
</linearGradient>
<linearGradient id="paint23_linear" x1="235.593" y1="155.56" x2="183.326" y2="-46.6886" gradientUnits="userSpaceOnUse">
<stop offset="0.0935" stop-color="#E50742"></stop>
<stop offset="0.1721" stop-color="#E62943"></stop>
<stop offset="0.3241" stop-color="#E75646"></stop>
<stop offset="0.5339" stop-color="#EB8E43"></stop>
<stop offset="0.791" stop-color="#F1CB27"></stop>
<stop offset="0.9172" stop-color="#F4E600"></stop>
</linearGradient>
<linearGradient id="paint24_linear" x1="211.547" y1="145.244" x2="204.791" y2="-78.8313" gradientUnits="userSpaceOnUse">
<stop offset="0.0281" stop-color="#E50742"></stop>
<stop offset="0.1158" stop-color="#E51B43"></stop>
<stop offset="0.2397" stop-color="#E63644"></stop>
<stop offset="0.3853" stop-color="#E85746"></stop>
<stop offset="0.5473" stop-color="#EA7D45"></stop>
<stop offset="0.7229" stop-color="#EEA73D"></stop>
<stop offset="0.9071" stop-color="#F2D120"></stop>
<stop offset="1" stop-color="#F4E600"></stop>
</linearGradient>
<linearGradient id="paint25_linear" x1="208.76" y1="207.752" x2="208.15" y2="207.354" gradientUnits="userSpaceOnUse">
<stop offset="0.0364" stop-color="#E50742"></stop>
<stop offset="0.1063" stop-color="#E61E43"></stop>
<stop offset="0.218" stop-color="#E83D44"></stop>
<stop offset="0.3575" stop-color="#EC6446"></stop>
<stop offset="0.5183" stop-color="#F39241"></stop>
<stop offset="0.679" stop-color="#FCBF30"></stop>
<stop offset="0.7473" stop-color="#F9D021"></stop>
<stop offset="0.8533" stop-color="#F4E600"></stop>
</linearGradient>
<linearGradient id="paint26_linear" x1="215.446" y1="211.167" x2="197.637" y2="199.579" gradientUnits="userSpaceOnUse">
<stop offset="0.0364" stop-color="#E50742"></stop>
<stop offset="0.1063" stop-color="#E61E43"></stop>
<stop offset="0.218" stop-color="#E83D44"></stop>
<stop offset="0.3575" stop-color="#EC6446"></stop>
<stop offset="0.5183" stop-color="#F39241"></stop>
<stop offset="0.679" stop-color="#FCBF30"></stop>
<stop offset="0.7473" stop-color="#F9D021"></stop>
<stop offset="0.8533" stop-color="#F4E600"></stop>
</linearGradient>
<linearGradient id="paint27_linear" x1="212.138" y1="208.966" x2="208.18" y2="206.39" gradientUnits="userSpaceOnUse">
<stop offset="0.0364" stop-color="#E50742"></stop>
<stop offset="0.1063" stop-color="#E61E43"></stop>
<stop offset="0.218" stop-color="#E83D44"></stop>
<stop offset="0.3575" stop-color="#EC6446"></stop>
<stop offset="0.5183" stop-color="#F39241"></stop>
<stop offset="0.679" stop-color="#FCBF30"></stop>
<stop offset="0.7473" stop-color="#F9D021"></stop>
<stop offset="0.8533" stop-color="#F4E600"></stop>
</linearGradient>
<linearGradient id="paint28_linear" x1="209.944" y1="208.075" x2="208.776" y2="207.315" gradientUnits="userSpaceOnUse">
<stop offset="0.0364" stop-color="#E50742"></stop>
<stop offset="0.1063" stop-color="#E61E43"></stop>
<stop offset="0.218" stop-color="#E83D44"></stop>
<stop offset="0.3575" stop-color="#EC6446"></stop>
<stop offset="0.5183" stop-color="#F39241"></stop>
<stop offset="0.679" stop-color="#FCBF30"></stop>
<stop offset="0.7473" stop-color="#F9D021"></stop>
<stop offset="0.8533" stop-color="#F4E600"></stop>
</linearGradient>
<linearGradient id="paint29_linear" x1="212.3" y1="208.223" x2="210.649" y2="207.145" gradientUnits="userSpaceOnUse">
<stop offset="0.0364" stop-color="#E50742"></stop>
<stop offset="0.1063" stop-color="#E61E43"></stop>
<stop offset="0.218" stop-color="#E83D44"></stop>
<stop offset="0.3575" stop-color="#EC6446"></stop>
<stop offset="0.5183" stop-color="#F39241"></stop>
<stop offset="0.679" stop-color="#FCBF30"></stop>
<stop offset="0.7473" stop-color="#F9D021"></stop>
<stop offset="0.8533" stop-color="#F4E600"></stop>
</linearGradient>
<linearGradient id="paint30_linear" x1="216.741" y1="210.065" x2="209.141" y2="205.119" gradientUnits="userSpaceOnUse">
<stop offset="0.0364" stop-color="#E50742"></stop>
<stop offset="0.1063" stop-color="#E61E43"></stop>
<stop offset="0.218" stop-color="#E83D44"></stop>
<stop offset="0.3575" stop-color="#EC6446"></stop>
<stop offset="0.5183" stop-color="#F39241"></stop>
<stop offset="0.679" stop-color="#FCBF30"></stop>
<stop offset="0.7473" stop-color="#F9D021"></stop>
<stop offset="0.8533" stop-color="#F4E600"></stop>
</linearGradient>
<linearGradient id="paint31_linear" x1="219.217" y1="208.606" x2="218.003" y2="207.816" gradientUnits="userSpaceOnUse">
<stop offset="0.0364" stop-color="#E50742"></stop>
<stop offset="0.1063" stop-color="#E61E43"></stop>
<stop offset="0.218" stop-color="#E83D44"></stop>
<stop offset="0.3575" stop-color="#EC6446"></stop>
<stop offset="0.5183" stop-color="#F39241"></stop>
<stop offset="0.679" stop-color="#FCBF30"></stop>
<stop offset="0.7473" stop-color="#F9D021"></stop>
<stop offset="0.8533" stop-color="#F4E600"></stop>
</linearGradient>
<linearGradient id="paint32_linear" x1="219.685" y1="208.798" x2="219.066" y2="208.395" gradientUnits="userSpaceOnUse">
<stop offset="0.0364" stop-color="#E50742"></stop>
<stop offset="0.1063" stop-color="#E61E43"></stop>
<stop offset="0.218" stop-color="#E83D44"></stop>
<stop offset="0.3575" stop-color="#EC6446"></stop>
<stop offset="0.5183" stop-color="#F39241"></stop>
<stop offset="0.679" stop-color="#FCBF30"></stop>
<stop offset="0.7473" stop-color="#F9D021"></stop>
<stop offset="0.8533" stop-color="#F4E600"></stop>
</linearGradient>
<linearGradient id="paint33_linear" x1="221.748" y1="225.691" x2="217.333" y2="222.819" gradientUnits="userSpaceOnUse">
<stop offset="0.0364" stop-color="#E50742"></stop>
<stop offset="0.1063" stop-color="#E61E43"></stop>
<stop offset="0.218" stop-color="#E83D44"></stop>
<stop offset="0.3575" stop-color="#EC6446"></stop>
<stop offset="0.5183" stop-color="#F39241"></stop>
<stop offset="0.679" stop-color="#FCBF30"></stop>
<stop offset="0.7473" stop-color="#F9D021"></stop>
<stop offset="0.8533" stop-color="#F4E600"></stop>
</linearGradient>
<linearGradient id="paint34_linear" x1="176.552" y1="69.4573" x2="389.021" y2="-9.50061" gradientUnits="userSpaceOnUse">
<stop stop-color="#E50742"></stop>
<stop offset="0.0282" stop-color="#E62243"></stop>
<stop offset="0.2192" stop-color="#ED6E47"></stop>
<stop offset="0.3915" stop-color="#F59C42"></stop>
<stop offset="0.539" stop-color="#FBBA38"></stop>
<stop offset="0.656" stop-color="#FECB2D"></stop>
<stop offset="0.728" stop-color="#FFD128"></stop>
</linearGradient>
<linearGradient id="paint35_linear" x1="373.642" y1="302.98" x2="120.29" y2="64.2675" gradientUnits="userSpaceOnUse">
<stop offset="0.321" stop-color="#E50742"></stop>
<stop offset="0.36" stop-color="#E61E43"></stop>
<stop offset="0.4222" stop-color="#E83D44"></stop>
<stop offset="0.4999" stop-color="#EC6446"></stop>
<stop offset="0.5895" stop-color="#F39241"></stop>
<stop offset="0.679" stop-color="#FCBF30"></stop>
<stop offset="0.7473" stop-color="#F9D021"></stop>
<stop offset="0.8533" stop-color="#F4E600"></stop>
</linearGradient>
<linearGradient id="paint36_linear" x1="186.542" y1="225.669" x2="184.166" y2="223.735" gradientUnits="userSpaceOnUse">
<stop offset="0.0364" stop-color="#E50742"></stop>
<stop offset="0.1063" stop-color="#E61E43"></stop>
<stop offset="0.218" stop-color="#E83D44"></stop>
<stop offset="0.3575" stop-color="#EC6446"></stop>
<stop offset="0.5183" stop-color="#F39241"></stop>
<stop offset="0.679" stop-color="#FCBF30"></stop>
<stop offset="0.7473" stop-color="#F9D021"></stop>
<stop offset="0.8533" stop-color="#F4E600"></stop>
</linearGradient>
<linearGradient id="paint37_linear" x1="165.407" y1="93.4256" x2="475.622" y2="5.59678" gradientUnits="userSpaceOnUse">
<stop stop-color="#E50742"></stop>
<stop offset="0.1591" stop-color="#EA4D46"></stop>
<stop offset="0.3744" stop-color="#F08246"></stop>
<stop offset="0.5738" stop-color="#F7A73F"></stop>
<stop offset="0.7509" stop-color="#FCBF35"></stop>
<stop offset="0.8989" stop-color="#FFCC2C"></stop>
<stop offset="1" stop-color="#FFD128"></stop>
</linearGradient>
<linearGradient id="paint38_linear" x1="24.786" y1="184.936" x2="480.818" y2="27.2949" gradientUnits="userSpaceOnUse">
<stop offset="0.1478" stop-color="#E50742"></stop>
<stop offset="0.3448" stop-color="#EA5546"></stop>
<stop offset="0.6635" stop-color="#F59D41"></stop>
<stop offset="0.8895" stop-color="#FDC332"></stop>
<stop offset="1" stop-color="#FFD128"></stop>
</linearGradient>
<linearGradient id="paint39_linear" x1="183.686" y1="103.537" x2="194.182" y2="100.902" gradientUnits="userSpaceOnUse">
<stop offset="0.0779" stop-color="#E50742"></stop>
<stop offset="0.291" stop-color="#EA5546"></stop>
<stop offset="0.6358" stop-color="#F59D41"></stop>
<stop offset="0.8805" stop-color="#FDC332"></stop>
<stop offset="1" stop-color="#FFD128"></stop>
</linearGradient>
<linearGradient id="paint40_linear" x1="74.3027" y1="211.671" x2="195.912" y2="25.8802" gradientUnits="userSpaceOnUse">
<stop offset="0.1431" stop-color="#E50742"></stop>
<stop offset="0.3526" stop-color="#EE7545"></stop>
<stop offset="0.5841" stop-color="#FCBF30"></stop>
<stop offset="0.6926" stop-color="#F9D021"></stop>
<stop offset="0.8611" stop-color="#F4E600"></stop>
</linearGradient>
<linearGradient id="paint41_linear" x1="64.2849" y1="204.809" x2="69.9663" y2="82.0943" gradientUnits="userSpaceOnUse">
<stop stop-color="#E50742"></stop>
<stop offset="0.0955" stop-color="#E62943"></stop>
<stop offset="0.2799" stop-color="#E75646"></stop>
<stop offset="0.5347" stop-color="#EB8E43"></stop>
<stop offset="0.8468" stop-color="#F1CB27"></stop>
<stop offset="1" stop-color="#F4E600"></stop>
</linearGradient>
<linearGradient id="paint42_linear" x1="50.7829" y1="188.942" x2="109.392" y2="29.8593" gradientUnits="userSpaceOnUse">
<stop stop-color="#E50742"></stop>
<stop offset="0.0966" stop-color="#E62A43"></stop>
<stop offset="0.2845" stop-color="#E85846"></stop>
<stop offset="0.5451" stop-color="#EC9143"></stop>
<stop offset="0.8649" stop-color="#F2CF23"></stop>
<stop offset="1" stop-color="#F4E600"></stop>
</linearGradient>
<linearGradient id="paint43_linear" x1="258.736" y1="281.936" x2="35.7867" y2="69.1207" gradientUnits="userSpaceOnUse">
<stop offset="0.321" stop-color="#E50742"></stop>
<stop offset="0.36" stop-color="#E61E43"></stop>
<stop offset="0.4222" stop-color="#E83D44"></stop>
<stop offset="0.4999" stop-color="#EC6446"></stop>
<stop offset="0.5895" stop-color="#F39241"></stop>
<stop offset="0.679" stop-color="#FCBF30"></stop>
<stop offset="0.7473" stop-color="#F9D021"></stop>
<stop offset="0.8533" stop-color="#F4E600"></stop>
</linearGradient>
<linearGradient id="paint44_linear" x1="354.625" y1="127.54" x2="329.368" y2="69.0819" gradientUnits="userSpaceOnUse">
<stop stop-color="#B6C17A"></stop>
<stop offset="0.5225" stop-color="#93AA50"></stop>
<stop offset="1" stop-color="#68823E"></stop>
</linearGradient>
<linearGradient id="paint45_linear" x1="360.719" y1="124.907" x2="335.462" y2="66.4492" gradientUnits="userSpaceOnUse">
<stop stop-color="#B6C17A"></stop>
<stop offset="0.5225" stop-color="#93AA50"></stop>
<stop offset="1" stop-color="#68823E"></stop>
</linearGradient>
<linearGradient id="paint46_linear" x1="348.905" y1="123.475" x2="326.492" y2="71.6003" gradientUnits="userSpaceOnUse">
<stop stop-color="#B6C17A"></stop>
<stop offset="0.5225" stop-color="#93AA50"></stop>
<stop offset="1" stop-color="#68823E"></stop>
</linearGradient>
<linearGradient id="paint47_linear" x1="235.593" y1="155.56" x2="183.326" y2="-46.6886" gradientUnits="userSpaceOnUse">
<stop offset="0.0935" stop-color="#E50742"></stop>
<stop offset="0.1721" stop-color="#E62943"></stop>
<stop offset="0.3241" stop-color="#E75646"></stop>
<stop offset="0.5339" stop-color="#EB8E43"></stop>
<stop offset="0.791" stop-color="#F1CB27"></stop>
<stop offset="0.9172" stop-color="#F4E600"></stop>
</linearGradient>
<linearGradient id="paint48_linear" x1="211.547" y1="145.244" x2="204.791" y2="-78.8313" gradientUnits="userSpaceOnUse">
<stop offset="0.0281" stop-color="#E50742"></stop>
<stop offset="0.1158" stop-color="#E51B43"></stop>
<stop offset="0.2397" stop-color="#E63644"></stop>
<stop offset="0.3853" stop-color="#E85746"></stop>
<stop offset="0.5473" stop-color="#EA7D45"></stop>
<stop offset="0.7229" stop-color="#EEA73D"></stop>
<stop offset="0.9071" stop-color="#F2D120"></stop>
<stop offset="1" stop-color="#F4E600"></stop>
</linearGradient>
</defs>
</svg>